<svg width="1024" height="1024" viewBox="0 0 1024 1024" fill="none" xmlns="http://www.w3.org/2000/svg">
<g filter="url(#filter0_d)">
<rect x="100" y="100" width="824" height="824" rx="179" fill="url(#paint0_linear)"/>
</g>
<g filter="url(#filter1_d)">
<path fill-rule="evenodd" clip-rule="evenodd" d="M346.577 686.723L374.762 814.81C386.281 867.159 455.396 879.353 484.134 834.106L544.453 739.136L686.283 756C738.177 762.169 772.654 703.715 742.148 661.285L641.035 520.649L688.817 357.627C704.08 305.553 647.942 261.537 601.013 288.783L482.617 357.52L414.624 304.663C374.859 273.75 316.992 302.561 317.694 352.924L319.487 481.781L252.245 553.549C224.718 582.928 233.319 630.54 269.386 648.431L346.577 686.723ZM382.451 353.798C380.104 351.98 376.697 353.691 376.755 356.659L379.557 501.804L298.494 590.803C296.914 592.538 297.432 595.302 299.533 596.347L394.868 643.732L430.647 795.791C431.362 798.83 435.378 799.516 437.062 796.887L514.418 676.123L685.645 695.836C688.672 696.185 690.691 692.796 688.944 690.3L578.021 531.838L630.969 347.648C631.846 344.596 628.567 342.026 625.813 343.607L478.494 428.189L382.451 353.798Z" fill="white" fill-opacity="0.9"/>
<path d="M788.264 219.125C788.264 250.674 762.688 276.249 731.139 276.249C699.59 276.249 674.014 250.674 674.014 219.125C674.014 187.576 699.59 162 731.139 162C762.688 162 788.264 187.576 788.264 219.125Z" fill="white" fill-opacity="0.9"/>
</g>
<defs>
<filter id="filter0_d" x="78" y="86" width="868" height="868" filterUnits="userSpaceOnUse" color-interpolation-filters="sRGB">
<feFlood flood-opacity="0" result="BackgroundImageFix"/>
<feColorMatrix in="SourceAlpha" type="matrix" values="0 0 0 0 0 0 0 0 0 0 0 0 0 0 0 0 0 0 127 0"/>
<feMorphology radius="2" operator="dilate" in="SourceAlpha" result="effect1_dropShadow"/>
<feOffset dy="8"/>
<feGaussianBlur stdDeviation="10"/>
<feColorMatrix type="matrix" values="0 0 0 0 0 0 0 0 0 0 0 0 0 0 0 0 0 0 0.25 0"/>
<feBlend mode="normal" in2="BackgroundImageFix" result="effect1_dropShadow"/>
<feBlend mode="normal" in="SourceGraphic" in2="effect1_dropShadow" result="shape"/>
</filter>
<filter id="filter1_d" x="206" y="136" width="612.264" height="760" filterUnits="userSpaceOnUse" color-interpolation-filters="sRGB">
<feFlood flood-opacity="0" result="BackgroundImageFix"/>
<feColorMatrix in="SourceAlpha" type="matrix" values="0 0 0 0 0 0 0 0 0 0 0 0 0 0 0 0 0 0 127 0"/>
<feOffset dy="4"/>
<feGaussianBlur stdDeviation="15"/>
<feColorMatrix type="matrix" values="0 0 0 0 0 0 0 0 0 0 0 0 0 0 0 0 0 0 0.3 0"/>
<feBlend mode="normal" in2="BackgroundImageFix" result="effect1_dropShadow"/>
<feBlend mode="normal" in="SourceGraphic" in2="effect1_dropShadow" result="shape"/>
</filter>
<linearGradient id="paint0_linear" x1="512" y1="100" x2="512" y2="924" gradientUnits="userSpaceOnUse">
<stop stop-color="#B52511"/>
<stop offset="1" stop-color="#8F2011"/>
</linearGradient>
</defs>
</svg>
