<svg width="1024" height="1024" viewBox="0 0 1024 1024" fill="none" xmlns="http://www.w3.org/2000/svg">
<g filter="url(#filter0_d)">
<path d="M42 194V844C42 882.66 73.3401 914 112 914H912C950.66 914 982 882.66 982 844V268C982 229.34 950.66 198 912 198H462.663C443.089 198 424.049 191.619 408.429 179.824L358.571 142.176C342.951 130.381 323.911 124 304.337 124H112C73.3401 124 42 155.34 42 194Z" fill="white"/>
</g>
<g filter="url(#filter1_ii)">
<path d="M982 375.5H42V194C42 155.34 73.3401 124 112 124H304.337C323.911 124 342.951 130.381 358.571 142.176L408.429 179.824C424.049 191.619 443.089 198 462.663 198H912C950.66 198 982 229.34 982 268V375.5Z" fill="#487DA7"/>
</g>
<rect x="42" y="258" width="940" height="656" rx="70" fill="#487DA7"/>
<g clip-path="url(#clip0)">
<path d="M752.97 635.406C750.062 626.601 742.447 620.468 732.598 618.997C727.955 618.304 722.636 618.599 716.343 619.896C705.373 622.16 697.235 623.021 691.295 623.188C713.714 585.338 731.943 542.175 742.438 501.544C759.407 435.845 750.339 405.915 739.742 392.377C711.699 356.544 670.784 337.294 621.424 336.705C595.093 336.383 571.977 341.582 559.919 345.321C548.691 343.34 536.619 342.233 523.953 342.029C500.208 341.65 479.229 346.826 461.303 357.465C451.379 354.108 435.451 349.377 417.057 346.358C373.795 339.256 338.928 344.79 313.424 362.807C282.542 384.622 268.225 422.523 270.873 475.459C271.714 492.266 281.116 543.402 295.919 591.898C304.426 619.773 313.498 642.921 322.883 660.705C336.191 685.923 350.432 700.773 366.419 706.107C375.379 709.091 391.659 711.182 408.782 696.921C410.953 699.55 413.849 702.161 417.691 704.588C422.572 707.665 428.54 710.18 434.5 711.671C455.979 717.04 476.099 715.697 493.263 708.171C493.369 711.224 493.451 714.141 493.519 716.66C493.633 720.745 493.746 724.75 493.896 728.497C494.913 753.826 496.636 773.521 501.742 787.302C502.023 788.059 502.4 789.214 502.797 790.44C505.345 798.239 509.604 811.296 520.441 821.521C531.663 832.114 545.237 835.362 557.669 835.362C563.903 835.362 569.852 834.544 575.07 833.427C593.669 829.44 614.792 823.368 630.072 801.61C644.519 781.042 651.542 750.063 652.812 701.25C652.977 699.87 653.129 698.552 653.275 697.296L653.578 694.716L656.981 695.016L657.858 695.074C676.801 695.938 699.964 691.921 714.189 685.313C725.43 680.097 761.451 661.08 752.97 635.406Z" fill="#305E83"/>
<path d="M720.58 640.398C664.254 652.017 660.381 632.947 660.381 632.947C719.851 544.703 744.712 432.689 723.26 405.274C664.729 330.492 563.413 365.86 561.722 366.776L561.178 366.875C550.049 364.564 537.597 363.189 523.599 362.96C498.114 362.543 478.781 369.642 464.11 380.767C464.11 380.767 283.371 306.309 291.779 474.411C293.566 510.172 343.036 745.004 402.04 674.074C423.606 648.136 444.445 626.206 444.445 626.206C454.794 633.081 467.184 636.589 480.173 635.329L481.182 634.473C480.868 637.693 481.012 640.843 481.585 644.572C466.385 661.555 470.852 664.536 440.466 670.792C409.718 677.129 427.781 688.409 439.574 691.36C453.871 694.934 486.947 699.998 509.296 668.712L508.406 672.282C514.36 677.053 518.542 703.31 517.841 727.115C517.14 750.918 516.673 767.261 521.364 780.026C526.059 792.792 530.735 821.513 570.682 812.954C604.059 805.801 621.356 787.265 623.763 756.345C625.47 734.364 629.335 737.614 629.578 717.96L632.678 708.657C636.252 678.86 633.246 669.246 653.809 673.718L658.809 674.157C673.941 674.845 693.752 671.721 705.379 666.318C730.413 654.701 745.262 635.301 720.576 640.398H720.58Z" fill="#336791"/>
<path d="M474.689 490.403C469.614 489.697 465.017 490.35 462.691 492.112C461.385 493.102 460.979 494.25 460.869 495.04C460.578 497.133 462.044 499.447 462.945 500.64C465.494 504.019 469.218 506.341 472.904 506.852C473.438 506.928 473.97 506.962 474.498 506.962C480.644 506.962 486.233 502.176 486.725 498.644C487.341 494.22 480.919 491.271 474.689 490.405" fill="white"/>
<path d="M642.841 490.544C642.356 487.076 636.186 486.088 630.33 486.902C624.481 487.716 618.811 490.357 619.284 493.832C619.663 496.535 624.544 501.148 630.32 501.148C630.809 501.148 631.301 501.116 631.797 501.046C635.653 500.512 638.483 498.063 639.828 496.652C641.873 494.5 643.059 492.103 642.841 490.544Z" fill="white"/>
<path d="M739.322 639.077C737.174 632.583 730.261 630.494 718.776 632.865C684.676 639.903 672.464 635.028 668.454 632.076C694.96 591.697 716.765 542.886 728.528 497.346C734.1 475.774 737.178 455.74 737.43 439.411C737.708 421.488 734.655 408.318 728.36 400.273C702.977 367.839 665.723 350.441 620.628 349.964C589.627 349.615 563.433 357.549 558.356 359.78C547.663 357.121 536.005 355.488 523.314 355.28C500.041 354.903 479.924 360.475 463.269 371.833C456.034 369.14 437.337 362.721 414.471 359.038C374.941 352.674 343.528 357.496 321.111 373.377C294.363 392.327 282.015 426.202 284.407 474.059C285.212 490.159 294.386 539.689 308.863 587.123C327.92 649.555 348.636 684.898 370.432 692.168C372.983 693.019 375.924 693.613 379.168 693.613C387.119 693.613 396.867 690.03 407.009 677.837C419.38 662.997 432.176 648.518 445.382 634.416C453.95 639.015 463.363 641.583 472.99 641.841C473.009 642.093 473.034 642.345 473.057 642.595C471.399 644.571 469.777 646.575 468.189 648.608C461.519 657.076 460.13 658.839 438.659 663.259C432.551 664.521 416.329 667.863 416.091 679.235C415.833 691.659 435.267 696.877 437.481 697.43C445.197 699.362 452.63 700.314 459.719 700.314C476.96 700.314 492.132 694.648 504.257 683.684C503.884 727.975 505.731 771.619 511.049 784.917C515.405 795.803 526.045 822.407 559.655 822.405C564.587 822.405 570.015 821.831 575.986 820.551C611.064 813.032 626.297 797.528 632.189 763.348C635.342 745.081 640.753 701.462 643.299 678.064C648.67 679.74 655.585 680.507 663.06 680.506C678.651 680.506 696.642 677.193 707.924 671.956C720.598 666.07 743.469 651.627 739.322 639.077ZM655.788 480.971C655.672 487.879 654.721 494.149 653.714 500.695C652.628 507.735 651.507 515.013 651.225 523.848C650.947 532.447 652.021 541.386 653.058 550.032C655.157 567.494 657.31 585.471 648.975 603.21C647.59 600.757 646.357 598.221 645.282 595.617C644.246 593.106 641.996 589.072 638.88 583.488C626.761 561.754 598.38 510.856 612.909 490.087C617.236 483.905 628.219 477.549 655.788 480.971ZM622.371 363.951C662.776 364.843 694.738 379.958 717.367 408.875C734.723 431.055 715.611 531.977 660.284 619.043C659.727 618.336 659.168 617.631 658.606 616.928L657.905 616.053C672.202 592.441 669.407 569.079 666.918 548.367C665.896 539.867 664.93 531.839 665.176 524.297C665.43 516.305 666.486 509.449 667.509 502.82C668.765 494.651 670.043 486.199 669.691 476.235C669.954 475.189 670.06 473.954 669.922 472.488C669.022 462.934 658.113 434.337 635.878 408.454C623.716 394.297 605.979 378.454 581.761 367.769C592.178 365.61 606.422 363.596 622.371 363.951ZM396.276 668.913C385.102 682.348 377.386 679.773 374.848 678.928C358.314 673.413 339.129 638.466 322.214 583.049C307.577 535.098 299.024 486.88 298.346 473.36C296.21 430.598 306.575 400.797 329.157 384.782C365.907 358.721 426.327 374.32 450.606 382.231C450.257 382.576 449.894 382.898 449.549 383.248C409.708 423.483 410.653 492.225 410.752 496.428C410.748 498.049 410.884 500.345 411.07 503.502C411.755 515.064 413.032 536.583 409.623 560.952C406.456 583.598 413.437 605.763 428.772 621.765C430.346 623.404 432 624.964 433.729 626.439C426.903 633.75 412.068 649.917 396.276 668.913ZM438.85 612.108C426.49 599.21 420.877 581.271 423.447 562.884C427.045 537.142 425.718 514.721 425.003 502.676C424.903 500.99 424.814 499.513 424.763 498.348C430.583 493.187 457.555 478.737 476.789 483.144C485.566 485.153 490.914 491.13 493.138 501.411C504.646 554.636 494.661 576.82 486.638 594.648C484.985 598.32 483.422 601.791 482.089 605.382L481.055 608.159C478.437 615.178 476.002 621.704 474.492 627.901C461.352 627.863 448.57 622.25 438.85 612.106V612.108ZM440.867 683.888C437.03 682.93 433.579 681.265 431.555 679.884C433.246 679.089 436.255 678.006 441.475 676.93C466.735 671.731 470.636 668.06 479.155 657.244C481.108 654.763 483.322 651.952 486.388 648.528L486.392 648.524C490.958 643.411 493.047 644.278 496.835 645.85C499.905 647.119 502.896 650.968 504.108 655.202C504.682 657.202 505.325 660.998 503.217 663.952C485.422 688.869 459.49 688.549 440.867 683.888ZM573.062 806.903C542.161 813.524 531.219 797.757 524.009 779.733C519.356 768.096 517.068 715.623 518.691 657.674C518.712 656.903 518.602 656.159 518.39 655.458C518.2 654.074 517.911 652.706 517.526 651.363C515.113 642.932 509.233 635.879 502.178 632.954C499.375 631.793 494.231 629.663 488.049 631.244C489.367 625.812 491.653 619.678 494.132 613.036L495.172 610.242C496.342 607.093 497.812 603.829 499.365 600.375C507.761 581.723 519.259 556.176 506.78 498.462C502.106 476.845 486.496 466.288 462.833 468.74C448.647 470.208 435.668 475.932 429.195 479.214C427.803 479.918 426.53 480.6 425.341 481.263C427.147 459.483 433.973 418.778 459.507 393.024C475.585 376.812 496.996 368.805 523.083 369.237C574.485 370.077 607.447 396.456 626.049 418.439C642.079 437.381 650.759 456.462 654.223 466.754C628.172 464.104 610.454 469.246 601.473 482.087C581.933 510.019 612.163 564.231 626.691 590.286C629.356 595.06 631.655 599.187 632.378 600.941C637.11 612.407 643.235 620.062 647.706 625.649C649.077 627.362 650.407 629.023 651.418 630.473C643.528 632.748 629.356 638.004 630.647 664.274C629.606 677.456 622.199 739.172 618.435 760.977C613.467 789.784 602.867 800.513 573.062 806.905V806.903ZM702.047 659.297C693.979 663.042 680.477 665.85 667.651 666.454C653.485 667.117 646.272 664.867 644.575 663.483C643.78 647.112 649.873 645.401 656.322 643.591C657.335 643.307 658.324 643.028 659.278 642.695C659.871 643.178 660.521 643.657 661.233 644.127C672.619 651.642 692.928 652.452 721.6 646.534L721.914 646.471C718.047 650.087 711.43 654.939 702.047 659.297Z" fill="white"/>
</g>
<g filter="url(#filter2_di)">
<path fill-rule="evenodd" clip-rule="evenodd" d="M976.603 871C978.972 865.339 980.618 859.301 981.427 853H42.5732C43.3819 859.301 45.0282 865.339 47.397 871H976.603Z" fill="white" fill-opacity="0.01"/>
<path d="M982 816H42V834H982V816Z" fill="white" fill-opacity="0.01"/>
</g>
<g filter="url(#filter3_i)">
<path d="M42 328C42 289.34 73.3401 258 112 258H912C950.66 258 982 289.34 982 328V844C982 882.66 950.66 914 912 914H112C73.3401 914 42 882.66 42 844V328Z" fill="white" fill-opacity="0.02"/>
</g>
<defs>
<filter id="filter0_d" x="22" y="112" width="980" height="830" filterUnits="userSpaceOnUse" color-interpolation-filters="sRGB">
<feFlood flood-opacity="0" result="BackgroundImageFix"/>
<feColorMatrix in="SourceAlpha" type="matrix" values="0 0 0 0 0 0 0 0 0 0 0 0 0 0 0 0 0 0 127 0"/>
<feOffset dy="8"/>
<feGaussianBlur stdDeviation="10"/>
<feColorMatrix type="matrix" values="0 0 0 0 0 0 0 0 0 0 0 0 0 0 0 0 0 0 0.5 0"/>
<feBlend mode="normal" in2="BackgroundImageFix" result="effect1_dropShadow"/>
<feBlend mode="normal" in="SourceGraphic" in2="effect1_dropShadow" result="shape"/>
</filter>
<filter id="filter1_ii" x="42" y="24" width="940" height="351.5" filterUnits="userSpaceOnUse" color-interpolation-filters="sRGB">
<feFlood flood-opacity="0" result="BackgroundImageFix"/>
<feBlend mode="normal" in="SourceGraphic" in2="BackgroundImageFix" result="shape"/>
<feColorMatrix in="SourceAlpha" type="matrix" values="0 0 0 0 0 0 0 0 0 0 0 0 0 0 0 0 0 0 127 0" result="hardAlpha"/>
<feOffset dy="-150"/>
<feGaussianBlur stdDeviation="50"/>
<feComposite in2="hardAlpha" operator="arithmetic" k2="-1" k3="1"/>
<feColorMatrix type="matrix" values="0 0 0 0 0 0 0 0 0 0 0 0 0 0 0 0 0 0 0.25 0"/>
<feBlend mode="normal" in2="shape" result="effect1_innerShadow"/>
<feColorMatrix in="SourceAlpha" type="matrix" values="0 0 0 0 0 0 0 0 0 0 0 0 0 0 0 0 0 0 127 0" result="hardAlpha"/>
<feOffset/>
<feGaussianBlur stdDeviation="25"/>
<feComposite in2="hardAlpha" operator="arithmetic" k2="-1" k3="1"/>
<feColorMatrix type="matrix" values="0 0 0 0 0 0 0 0 0 0 0 0 0 0 0 0 0 0 0.12 0"/>
<feBlend mode="normal" in2="effect1_innerShadow" result="effect2_innerShadow"/>
</filter>
<filter id="filter2_di" x="27" y="805" width="970" height="85" filterUnits="userSpaceOnUse" color-interpolation-filters="sRGB">
<feFlood flood-opacity="0" result="BackgroundImageFix"/>
<feColorMatrix in="SourceAlpha" type="matrix" values="0 0 0 0 0 0 0 0 0 0 0 0 0 0 0 0 0 0 127 0"/>
<feOffset dy="4"/>
<feGaussianBlur stdDeviation="7.5"/>
<feColorMatrix type="matrix" values="0 0 0 0 0 0 0 0 0 0 0 0 0 0 0 0 0 0 0.08 0"/>
<feBlend mode="normal" in2="BackgroundImageFix" result="effect1_dropShadow"/>
<feBlend mode="normal" in="SourceGraphic" in2="effect1_dropShadow" result="shape"/>
<feColorMatrix in="SourceAlpha" type="matrix" values="0 0 0 0 0 0 0 0 0 0 0 0 0 0 0 0 0 0 127 0" result="hardAlpha"/>
<feOffset dy="3"/>
<feGaussianBlur stdDeviation="3.5"/>
<feComposite in2="hardAlpha" operator="arithmetic" k2="-1" k3="1"/>
<feColorMatrix type="matrix" values="0 0 0 0 1 0 0 0 0 1 0 0 0 0 1 0 0 0 0.1 0"/>
<feBlend mode="normal" in2="shape" result="effect2_innerShadow"/>
</filter>
<filter id="filter3_i" x="42" y="258" width="940" height="656" filterUnits="userSpaceOnUse" color-interpolation-filters="sRGB">
<feFlood flood-opacity="0" result="BackgroundImageFix"/>
<feBlend mode="normal" in="SourceGraphic" in2="BackgroundImageFix" result="shape"/>
<feColorMatrix in="SourceAlpha" type="matrix" values="0 0 0 0 0 0 0 0 0 0 0 0 0 0 0 0 0 0 127 0" result="hardAlpha"/>
<feOffset/>
<feGaussianBlur stdDeviation="30"/>
<feComposite in2="hardAlpha" operator="arithmetic" k2="-1" k3="1"/>
<feColorMatrix type="matrix" values="0 0 0 0 0 0 0 0 0 0 0 0 0 0 0 0 0 0 0.15 0"/>
<feBlend mode="normal" in2="shape" result="effect1_innerShadow"/>
</filter>
<clipPath id="clip0">
<rect width="484.848" height="500" fill="white" transform="translate(270 336)"/>
</clipPath>
</defs>
</svg>
