<svg width="1024" height="1024" viewBox="0 0 1024 1024" fill="none" xmlns="http://www.w3.org/2000/svg">
<g filter="url(#filter0_d)">
<path d="M42 194V844C42 882.66 73.3401 914 112 914H912C950.66 914 982 882.66 982 844V268C982 229.34 950.66 198 912 198H462.663C443.089 198 424.049 191.619 408.429 179.824L358.571 142.176C342.951 130.381 323.911 124 304.337 124H112C73.3401 124 42 155.34 42 194Z" fill="white"/>
</g>
<g filter="url(#filter1_ii)">
<path d="M982 375.5H42V194C42 155.34 73.3401 124 112 124H304.337C323.911 124 342.951 130.381 358.571 142.176L408.429 179.824C424.049 191.619 443.089 198 462.663 198H912C950.66 198 982 229.34 982 268V375.5Z" fill="#CFD9DD"/>
</g>
<rect x="42" y="258" width="940" height="656" rx="70" fill="#CFD9DD"/>
<path d="M806.975 651.647C797.714 651.647 791.163 650.76 787.32 648.987C783.478 647.214 779.587 643.765 775.646 638.643L702.641 534.014L749.34 466.33C753.281 461.01 758.651 456.182 765.449 451.848C772.247 447.514 783.429 445.345 798.996 445.345V435H718.307V445.345C724.809 445.345 729.882 446.971 733.528 450.221C737.174 453.472 738.996 457.069 738.996 461.01C738.996 462.389 738.898 463.719 738.701 465C738.504 466.281 737.715 467.611 736.336 468.99L697.321 526.33L652.987 461.01L651.656 459.384L650.326 455.986C650.326 453.227 652.199 450.764 655.942 448.597C659.685 446.43 664.81 445.346 671.311 445.346V435.001H577.321V445.346H582.642C591.706 445.346 598.504 446.135 603.036 447.711C607.567 449.287 611.114 452.046 613.676 455.987L676.336 549.68L621.657 630.666C619.095 634.607 614.414 639.089 607.616 644.114C600.818 649.139 588.946 651.652 572.001 651.652V661.996H591.235C587.345 682.784 581.922 698.458 574.955 708.992C566.876 721.208 548.552 727.316 519.979 727.316H475.644C467.762 727.316 463.181 726.429 461.9 724.656C460.619 722.883 459.979 719.434 459.979 714.312V625.347H488.649C504.216 625.347 514.166 628.302 518.502 634.214C522.837 640.127 525.004 650.274 525.004 664.657H532.985V575.988H525.004C525.004 590.371 523.182 600.47 519.536 606.283C515.891 612.095 505.596 615.002 488.649 615.002H459.979V534.016C459.979 528.893 460.62 525.444 461.9 523.672C463.18 521.9 467.762 521.012 475.644 521.012H517.319C543.329 521.012 560.028 526.036 567.417 536.086C574.805 546.136 579.879 562.884 582.638 586.332H590.323L579.979 510.668H428.463L423.329 437.663H217.32L212 513.327H219.685C222.444 485.938 226.977 468.204 233.281 460.125C239.586 452.046 255.153 448.007 279.98 448.007H298.011C301.952 448.007 304.266 449.189 304.956 451.553C305.646 453.916 305.991 457.07 305.991 461.011V635.986C305.991 641.11 304.563 645 301.705 647.661C298.848 650.321 288.946 651.651 272.001 651.651H256.337V661.995H381.656V651.651H371.016C354.071 651.651 344.217 650.321 341.46 647.661C338.703 645 337.322 641.109 337.322 635.986V461.011C337.322 457.07 337.519 454.262 337.913 452.587C338.307 450.913 339.784 449.386 342.347 448.005H360.673C385.5 448.005 401.066 452.045 407.372 460.124C413.468 467.935 417.81 484.801 420.407 510.665H394.663V521.009H402.348C415.55 521.009 423.234 521.995 425.402 523.965C427.57 525.935 428.653 530.172 428.653 536.674V711.649C428.653 718.152 427.569 722.388 425.402 724.359C423.235 726.331 415.55 727.315 402.348 727.315H394.663V737.659H587.666L599.107 661.995H655.647V651.651C647.765 651.651 642.297 649.68 639.243 645.739C636.189 641.798 634.662 638.547 634.662 635.985C634.662 634.606 634.76 633.276 634.957 631.995C635.154 630.714 635.943 629.384 637.321 628.005L684.316 557.66L736.336 638.644C736.336 639.827 736.779 640.517 737.666 640.712L738.996 641.008C738.996 643.766 737.174 646.23 733.528 648.396C729.882 650.563 724.809 651.647 718.307 651.647V661.991H812V651.647H806.975Z" fill="black"/>
<g filter="url(#filter2_di)">
<path fill-rule="evenodd" clip-rule="evenodd" d="M976.603 871C978.972 865.339 980.618 859.301 981.427 853H42.5732C43.3819 859.301 45.0282 865.339 47.397 871H976.603Z" fill="white" fill-opacity="0.01"/>
<path d="M982 816H42V834H982V816Z" fill="white" fill-opacity="0.01"/>
</g>
<g filter="url(#filter3_i)">
<path d="M42 328C42 289.34 73.3401 258 112 258H912C950.66 258 982 289.34 982 328V844C982 882.66 950.66 914 912 914H112C73.3401 914 42 882.66 42 844V328Z" fill="white" fill-opacity="0.02"/>
</g>
<defs>
<filter id="filter0_d" x="22" y="112" width="980" height="830" filterUnits="userSpaceOnUse" color-interpolation-filters="sRGB">
<feFlood flood-opacity="0" result="BackgroundImageFix"/>
<feColorMatrix in="SourceAlpha" type="matrix" values="0 0 0 0 0 0 0 0 0 0 0 0 0 0 0 0 0 0 127 0"/>
<feOffset dy="8"/>
<feGaussianBlur stdDeviation="10"/>
<feColorMatrix type="matrix" values="0 0 0 0 0 0 0 0 0 0 0 0 0 0 0 0 0 0 0.5 0"/>
<feBlend mode="normal" in2="BackgroundImageFix" result="effect1_dropShadow"/>
<feBlend mode="normal" in="SourceGraphic" in2="effect1_dropShadow" result="shape"/>
</filter>
<filter id="filter1_ii" x="42" y="24" width="940" height="351.5" filterUnits="userSpaceOnUse" color-interpolation-filters="sRGB">
<feFlood flood-opacity="0" result="BackgroundImageFix"/>
<feBlend mode="normal" in="SourceGraphic" in2="BackgroundImageFix" result="shape"/>
<feColorMatrix in="SourceAlpha" type="matrix" values="0 0 0 0 0 0 0 0 0 0 0 0 0 0 0 0 0 0 127 0" result="hardAlpha"/>
<feOffset dy="-150"/>
<feGaussianBlur stdDeviation="50"/>
<feComposite in2="hardAlpha" operator="arithmetic" k2="-1" k3="1"/>
<feColorMatrix type="matrix" values="0 0 0 0 0 0 0 0 0 0 0 0 0 0 0 0 0 0 0.25 0"/>
<feBlend mode="normal" in2="shape" result="effect1_innerShadow"/>
<feColorMatrix in="SourceAlpha" type="matrix" values="0 0 0 0 0 0 0 0 0 0 0 0 0 0 0 0 0 0 127 0" result="hardAlpha"/>
<feOffset/>
<feGaussianBlur stdDeviation="25"/>
<feComposite in2="hardAlpha" operator="arithmetic" k2="-1" k3="1"/>
<feColorMatrix type="matrix" values="0 0 0 0 0 0 0 0 0 0 0 0 0 0 0 0 0 0 0.12 0"/>
<feBlend mode="normal" in2="effect1_innerShadow" result="effect2_innerShadow"/>
</filter>
<filter id="filter2_di" x="27" y="805" width="970" height="85" filterUnits="userSpaceOnUse" color-interpolation-filters="sRGB">
<feFlood flood-opacity="0" result="BackgroundImageFix"/>
<feColorMatrix in="SourceAlpha" type="matrix" values="0 0 0 0 0 0 0 0 0 0 0 0 0 0 0 0 0 0 127 0"/>
<feOffset dy="4"/>
<feGaussianBlur stdDeviation="7.5"/>
<feColorMatrix type="matrix" values="0 0 0 0 0 0 0 0 0 0 0 0 0 0 0 0 0 0 0.08 0"/>
<feBlend mode="normal" in2="BackgroundImageFix" result="effect1_dropShadow"/>
<feBlend mode="normal" in="SourceGraphic" in2="effect1_dropShadow" result="shape"/>
<feColorMatrix in="SourceAlpha" type="matrix" values="0 0 0 0 0 0 0 0 0 0 0 0 0 0 0 0 0 0 127 0" result="hardAlpha"/>
<feOffset dy="3"/>
<feGaussianBlur stdDeviation="3.5"/>
<feComposite in2="hardAlpha" operator="arithmetic" k2="-1" k3="1"/>
<feColorMatrix type="matrix" values="0 0 0 0 1 0 0 0 0 1 0 0 0 0 1 0 0 0 0.1 0"/>
<feBlend mode="normal" in2="shape" result="effect2_innerShadow"/>
</filter>
<filter id="filter3_i" x="42" y="258" width="940" height="656" filterUnits="userSpaceOnUse" color-interpolation-filters="sRGB">
<feFlood flood-opacity="0" result="BackgroundImageFix"/>
<feBlend mode="normal" in="SourceGraphic" in2="BackgroundImageFix" result="shape"/>
<feColorMatrix in="SourceAlpha" type="matrix" values="0 0 0 0 0 0 0 0 0 0 0 0 0 0 0 0 0 0 127 0" result="hardAlpha"/>
<feOffset/>
<feGaussianBlur stdDeviation="30"/>
<feComposite in2="hardAlpha" operator="arithmetic" k2="-1" k3="1"/>
<feColorMatrix type="matrix" values="0 0 0 0 0 0 0 0 0 0 0 0 0 0 0 0 0 0 0.15 0"/>
<feBlend mode="normal" in2="shape" result="effect1_innerShadow"/>
</filter>
</defs>
</svg>
