<svg width="1024" height="1024" viewBox="0 0 1024 1024" fill="none" xmlns="http://www.w3.org/2000/svg">
<g filter="url(#filter0_d)">
<path d="M42 194V844C42 882.66 73.3401 914 112 914H912C950.66 914 982 882.66 982 844V268C982 229.34 950.66 198 912 198H462.663C443.089 198 424.049 191.619 408.429 179.824L358.571 142.176C342.951 130.381 323.911 124 304.337 124H112C73.3401 124 42 155.34 42 194Z" fill="white"/>
</g>
<g filter="url(#filter1_ii)">
<path d="M982 375.5H42V194C42 155.34 73.3401 124 112 124H304.337C323.911 124 342.951 130.381 358.571 142.176L408.429 179.824C424.049 191.619 443.089 198 462.663 198H912C950.66 198 982 229.34 982 268V375.5Z" fill="#98D6E8"/>
</g>
<rect x="42" y="258" width="940" height="656" rx="70" fill="#98D6E8"/>
<path d="M792.456 586.057C792.456 548.863 745.878 513.615 674.465 491.756C690.945 418.971 683.621 361.063 651.348 342.523C643.909 338.174 635.212 336.114 625.713 336.114V361.635C630.977 361.635 635.212 362.665 638.759 364.611C654.323 373.537 661.076 407.527 655.811 451.244C654.552 462.001 652.492 473.331 649.975 484.89C627.544 479.397 603.053 475.162 577.304 472.416C561.854 451.244 545.832 432.017 529.695 415.194C567.004 380.518 602.023 361.521 625.827 361.521V336C594.356 336 553.156 358.431 511.499 397.341C469.842 358.66 428.643 336.458 397.171 336.458V361.978C420.86 361.978 455.994 380.862 493.303 415.309C477.281 432.132 461.259 451.244 446.038 472.416C420.174 475.162 395.683 479.397 373.252 485.004C370.62 473.56 368.675 462.459 367.301 451.816C361.922 408.099 368.56 374.109 384.01 365.068C387.443 363.008 391.906 362.093 397.171 362.093V336.572C387.558 336.572 378.86 338.632 371.307 342.981C339.148 361.521 331.938 419.314 348.533 491.871C277.349 513.844 231 548.978 231 586.057C231 623.251 277.578 658.499 348.99 680.358C332.511 753.143 339.835 811.051 372.108 829.591C379.547 833.94 388.244 836 397.857 836C429.329 836 470.529 813.569 512.186 774.659C553.843 813.34 595.042 835.542 626.514 835.542C636.127 835.542 644.825 833.482 652.378 829.133C684.536 810.594 691.746 752.8 675.152 680.243C746.107 658.385 792.456 623.137 792.456 586.057ZM643.451 509.724C639.217 524.487 633.953 539.708 628.002 554.929C623.309 545.773 618.388 536.618 613.01 527.463C607.745 518.307 602.138 509.381 596.53 500.683C612.781 503.086 628.459 506.062 643.451 509.724ZM591.037 631.605C582.11 647.055 572.955 661.704 563.456 675.322C546.404 676.81 529.123 677.611 511.728 677.611C494.447 677.611 477.166 676.81 460.229 675.437C450.73 661.818 441.46 647.284 432.534 631.949C423.836 616.957 415.939 601.736 408.729 586.401C415.825 571.065 423.836 555.73 432.419 540.738C441.346 525.288 450.501 510.639 460 497.021C477.052 495.533 494.333 494.732 511.728 494.732C529.009 494.732 546.29 495.533 563.227 496.906C572.726 510.525 581.996 525.059 590.922 540.395C599.62 555.387 607.516 570.607 614.726 585.943C607.516 601.278 599.62 616.613 591.037 631.605ZM628.002 616.728C634.182 632.063 639.446 647.398 643.795 662.276C628.803 665.938 613.01 669.028 596.644 671.431C602.252 662.619 607.86 653.578 613.124 644.309C618.389 635.153 623.309 625.883 628.002 616.728ZM511.957 738.838C501.314 727.852 490.67 715.606 480.142 702.216C490.442 702.674 500.97 703.018 511.613 703.018C522.371 703.018 533.014 702.789 543.429 702.216C533.129 715.606 522.486 727.852 511.957 738.838ZM426.811 671.431C410.561 669.028 394.882 666.053 379.89 662.39C384.124 647.627 389.389 632.406 395.34 617.186C400.032 626.341 404.953 635.496 410.332 644.652C415.71 653.807 421.204 662.734 426.811 671.431ZM511.385 433.276C522.028 444.263 532.671 456.508 543.2 469.898C532.9 469.44 522.371 469.097 511.728 469.097C500.97 469.097 490.327 469.326 479.913 469.898C490.213 456.508 500.856 444.263 511.385 433.276ZM426.697 500.683C421.089 509.495 415.482 518.536 410.217 527.806C404.953 536.961 400.032 546.117 395.34 555.272C389.16 539.937 383.895 524.602 379.547 509.724C394.539 506.176 410.332 503.086 426.697 500.683ZM323.126 643.965C282.614 626.684 256.406 604.025 256.406 586.057C256.406 568.09 282.614 545.316 323.126 528.149C332.968 523.915 343.726 520.138 354.827 516.591C361.35 539.021 369.933 562.368 380.577 586.286C370.048 610.09 361.579 633.322 355.17 655.638C343.84 652.091 333.083 648.2 323.126 643.965ZM384.697 807.504C369.132 798.577 362.38 764.588 367.645 720.871C368.903 710.113 370.963 698.783 373.481 687.225C395.912 692.718 420.403 696.952 446.152 699.699C461.602 720.871 477.624 740.097 493.76 756.92C456.452 791.596 421.433 810.594 397.629 810.594C392.479 810.479 388.13 809.449 384.697 807.504ZM656.155 720.298C661.533 764.016 654.896 798.005 639.446 807.046C636.013 809.106 631.549 810.022 626.285 810.022C602.595 810.022 567.462 791.138 530.153 756.691C546.175 739.868 562.197 720.756 577.418 699.584C603.282 696.838 627.773 692.603 650.204 686.996C652.836 698.554 654.896 709.655 656.155 720.298ZM700.215 643.965C690.373 648.2 679.615 651.976 668.514 655.524C661.991 633.093 653.408 609.747 642.765 585.828C653.293 562.024 661.762 538.792 668.171 516.476C679.501 520.024 690.258 523.915 700.329 528.149C740.842 545.43 767.049 568.09 767.049 586.057C766.935 604.025 740.728 626.799 700.215 643.965Z" fill="#4DA8C0"/>
<path d="M511.613 638.358C540.498 638.358 563.914 614.943 563.914 586.058C563.914 557.173 540.498 533.758 511.613 533.758C482.729 533.758 459.313 557.173 459.313 586.058C459.313 614.943 482.729 638.358 511.613 638.358Z" fill="#4DA8C0"/>
<g filter="url(#filter2_di)">
<path fill-rule="evenodd" clip-rule="evenodd" d="M976.603 871C978.972 865.339 980.618 859.301 981.427 853H42.5732C43.3819 859.301 45.0282 865.339 47.397 871H976.603Z" fill="white" fill-opacity="0.01"/>
<path d="M982 816H42V834H982V816Z" fill="white" fill-opacity="0.01"/>
</g>
<g filter="url(#filter3_i)">
<path d="M42 328C42 289.34 73.3401 258 112 258H912C950.66 258 982 289.34 982 328V844C982 882.66 950.66 914 912 914H112C73.3401 914 42 882.66 42 844V328Z" fill="white" fill-opacity="0.02"/>
</g>
<defs>
<filter id="filter0_d" x="22" y="112" width="980" height="830" filterUnits="userSpaceOnUse" color-interpolation-filters="sRGB">
<feFlood flood-opacity="0" result="BackgroundImageFix"/>
<feColorMatrix in="SourceAlpha" type="matrix" values="0 0 0 0 0 0 0 0 0 0 0 0 0 0 0 0 0 0 127 0"/>
<feOffset dy="8"/>
<feGaussianBlur stdDeviation="10"/>
<feColorMatrix type="matrix" values="0 0 0 0 0 0 0 0 0 0 0 0 0 0 0 0 0 0 0.5 0"/>
<feBlend mode="normal" in2="BackgroundImageFix" result="effect1_dropShadow"/>
<feBlend mode="normal" in="SourceGraphic" in2="effect1_dropShadow" result="shape"/>
</filter>
<filter id="filter1_ii" x="42" y="24" width="940" height="351.5" filterUnits="userSpaceOnUse" color-interpolation-filters="sRGB">
<feFlood flood-opacity="0" result="BackgroundImageFix"/>
<feBlend mode="normal" in="SourceGraphic" in2="BackgroundImageFix" result="shape"/>
<feColorMatrix in="SourceAlpha" type="matrix" values="0 0 0 0 0 0 0 0 0 0 0 0 0 0 0 0 0 0 127 0" result="hardAlpha"/>
<feOffset dy="-150"/>
<feGaussianBlur stdDeviation="50"/>
<feComposite in2="hardAlpha" operator="arithmetic" k2="-1" k3="1"/>
<feColorMatrix type="matrix" values="0 0 0 0 0 0 0 0 0 0 0 0 0 0 0 0 0 0 0.25 0"/>
<feBlend mode="normal" in2="shape" result="effect1_innerShadow"/>
<feColorMatrix in="SourceAlpha" type="matrix" values="0 0 0 0 0 0 0 0 0 0 0 0 0 0 0 0 0 0 127 0" result="hardAlpha"/>
<feOffset/>
<feGaussianBlur stdDeviation="25"/>
<feComposite in2="hardAlpha" operator="arithmetic" k2="-1" k3="1"/>
<feColorMatrix type="matrix" values="0 0 0 0 0 0 0 0 0 0 0 0 0 0 0 0 0 0 0.12 0"/>
<feBlend mode="normal" in2="effect1_innerShadow" result="effect2_innerShadow"/>
</filter>
<filter id="filter2_di" x="27" y="805" width="970" height="85" filterUnits="userSpaceOnUse" color-interpolation-filters="sRGB">
<feFlood flood-opacity="0" result="BackgroundImageFix"/>
<feColorMatrix in="SourceAlpha" type="matrix" values="0 0 0 0 0 0 0 0 0 0 0 0 0 0 0 0 0 0 127 0"/>
<feOffset dy="4"/>
<feGaussianBlur stdDeviation="7.5"/>
<feColorMatrix type="matrix" values="0 0 0 0 0 0 0 0 0 0 0 0 0 0 0 0 0 0 0.08 0"/>
<feBlend mode="normal" in2="BackgroundImageFix" result="effect1_dropShadow"/>
<feBlend mode="normal" in="SourceGraphic" in2="effect1_dropShadow" result="shape"/>
<feColorMatrix in="SourceAlpha" type="matrix" values="0 0 0 0 0 0 0 0 0 0 0 0 0 0 0 0 0 0 127 0" result="hardAlpha"/>
<feOffset dy="3"/>
<feGaussianBlur stdDeviation="3.5"/>
<feComposite in2="hardAlpha" operator="arithmetic" k2="-1" k3="1"/>
<feColorMatrix type="matrix" values="0 0 0 0 1 0 0 0 0 1 0 0 0 0 1 0 0 0 0.1 0"/>
<feBlend mode="normal" in2="shape" result="effect2_innerShadow"/>
</filter>
<filter id="filter3_i" x="42" y="258" width="940" height="656" filterUnits="userSpaceOnUse" color-interpolation-filters="sRGB">
<feFlood flood-opacity="0" result="BackgroundImageFix"/>
<feBlend mode="normal" in="SourceGraphic" in2="BackgroundImageFix" result="shape"/>
<feColorMatrix in="SourceAlpha" type="matrix" values="0 0 0 0 0 0 0 0 0 0 0 0 0 0 0 0 0 0 127 0" result="hardAlpha"/>
<feOffset/>
<feGaussianBlur stdDeviation="30"/>
<feComposite in2="hardAlpha" operator="arithmetic" k2="-1" k3="1"/>
<feColorMatrix type="matrix" values="0 0 0 0 0 0 0 0 0 0 0 0 0 0 0 0 0 0 0.15 0"/>
<feBlend mode="normal" in2="shape" result="effect1_innerShadow"/>
</filter>
</defs>
</svg>
