<svg width="1024" height="1024" viewBox="0 0 1024 1024" fill="none" xmlns="http://www.w3.org/2000/svg">
<g filter="url(#filter0_d)">
<path d="M42 194V844C42 882.66 73.3401 914 112 914H912C950.66 914 982 882.66 982 844V268C982 229.34 950.66 198 912 198H462.663C443.089 198 424.049 191.619 408.429 179.824L358.571 142.176C342.951 130.381 323.911 124 304.337 124H112C73.3401 124 42 155.34 42 194Z" fill="white"/>
</g>
<g filter="url(#filter1_ii)">
<path d="M982 375.5H42V194C42 155.34 73.3401 124 112 124H304.337C323.911 124 342.951 130.381 358.571 142.176L408.429 179.824C424.049 191.619 443.089 198 462.663 198H912C950.66 198 982 229.34 982 268V375.5Z" fill="#F398C6"/>
</g>
<rect x="42" y="258" width="940" height="656" rx="70" fill="#F398C6"/>
<path d="M798.224 623.114C774.901 623.246 754.706 628.847 737.768 637.187C731.514 624.809 725.26 613.993 724.219 605.917C723.046 596.535 721.613 590.801 723.046 579.597C724.478 568.391 730.993 552.495 730.993 551.192C730.861 550.019 729.558 544.286 716.139 544.156C702.72 544.026 691.123 546.762 689.82 550.28C688.517 553.798 685.911 561.876 684.217 570.215C681.872 582.462 657.377 625.85 643.435 648.652C638.875 639.792 634.966 631.974 634.183 625.719C633.012 616.339 631.577 610.605 633.012 599.401C634.445 588.194 640.96 572.3 640.96 570.997C640.829 569.824 639.526 564.091 626.108 563.961C612.686 563.83 601.091 566.567 599.788 570.085C598.485 573.603 597.052 581.941 594.186 590.02C591.448 598.098 558.875 670.541 550.406 689.434C546.106 699.075 542.329 706.763 539.591 711.974C536.855 717.186 539.461 712.365 539.2 712.886C536.855 717.316 535.552 719.792 535.552 719.792V719.923C533.728 723.181 531.774 726.307 530.86 726.307C530.209 726.307 528.906 717.577 531.121 705.591C535.942 680.443 547.668 641.226 547.539 639.793C547.539 639.141 549.753 632.235 539.981 628.718C530.469 625.2 527.083 631.063 526.3 631.063C525.518 631.063 524.867 633.148 524.867 633.148C524.867 633.148 535.421 588.98 504.671 588.98C485.388 588.98 458.808 609.957 445.648 629.11C437.31 633.67 419.59 643.311 400.827 653.605C393.661 657.514 386.235 661.684 379.199 665.462L377.767 663.896C340.503 624.156 271.578 596.013 274.444 542.593C275.486 523.179 282.262 471.974 406.824 409.954C508.843 359.139 590.537 373.081 604.738 404.091C624.934 448.39 561.09 530.736 455.032 542.593C414.641 547.153 393.402 531.518 388.061 525.654C382.459 519.531 381.677 519.27 379.592 520.443C376.205 522.267 378.289 527.739 379.592 530.997C382.719 539.205 395.749 553.798 417.898 561.094C437.311 567.479 484.739 570.997 542.068 548.847C606.303 523.961 656.466 454.905 641.743 397.185C626.759 338.423 529.299 319.139 437.182 351.843C382.327 371.387 322.913 401.876 280.177 441.876C229.362 489.303 221.284 530.736 224.672 547.935C236.53 609.303 321.089 649.303 354.965 678.88C353.272 679.79 351.708 680.703 350.275 681.486C333.337 689.823 268.841 723.57 252.685 759.27C234.444 799.661 255.551 828.717 269.623 832.626C313.141 844.743 357.702 822.984 381.806 787.154C405.779 751.323 402.913 704.808 391.838 683.57L391.446 682.789L404.736 674.971C413.337 669.889 421.806 665.199 429.231 661.158C425.063 672.494 422.065 685.914 420.503 705.458C418.679 728.391 428.06 758.097 440.438 769.823C445.91 774.903 452.425 775.035 456.464 775.035C470.796 775.035 477.311 763.177 484.477 748.976C493.337 731.647 501.155 711.582 501.155 711.582C501.155 711.582 491.383 765.915 518.093 765.915C527.865 765.915 537.637 753.276 542.067 746.761V746.892C542.067 746.892 542.327 746.501 542.849 745.589C543.395 744.78 543.917 743.955 544.412 743.114V742.854C548.321 736.079 557.051 720.574 570.08 694.906C586.887 661.811 603.044 620.378 603.044 620.378C603.044 620.378 604.608 630.541 609.429 647.218C612.294 657.122 618.548 667.935 623.369 678.489C619.46 683.961 617.115 687.09 617.115 687.09L617.245 687.22C614.119 691.389 610.6 695.82 606.953 700.249C593.663 716.145 577.767 734.257 575.683 739.469C573.207 745.591 573.728 750.152 578.549 753.801C582.067 756.407 588.321 756.927 594.966 756.407C606.953 755.624 615.292 752.628 619.461 750.803C625.976 748.458 633.403 744.94 640.569 739.728C653.598 730.088 661.546 716.407 660.764 698.166C660.373 688.133 657.116 678.231 653.077 668.85C654.25 667.156 655.424 665.461 656.595 663.638C677.181 633.539 693.077 600.446 693.077 600.446C693.077 600.446 694.641 610.608 699.461 627.286C701.936 635.755 706.888 645.007 711.318 654.128C692.035 669.893 679.917 688.134 675.748 700.121C668.061 722.271 674.054 732.304 685.39 734.649C690.47 735.692 697.768 733.346 703.239 731.001C710.014 728.786 718.222 725.006 725.781 719.405C738.81 709.763 751.318 696.343 750.667 678.232C750.276 669.893 748.061 661.685 745.064 653.867C761.481 647.092 782.718 643.183 809.69 646.441C867.67 653.216 879.136 689.437 876.923 704.551C874.708 719.667 862.59 728.004 858.55 730.61C854.511 733.086 853.208 733.999 853.599 735.822C854.12 738.559 855.944 738.428 859.462 737.908C864.283 737.125 889.951 725.53 890.993 697.648C892.556 661.813 858.55 622.724 798.224 623.114ZM351.057 773.864C331.903 794.841 304.933 802.789 293.467 796.014C281.089 788.847 285.909 757.968 309.493 735.688C323.825 722.137 342.457 709.629 354.705 701.942C357.441 700.248 361.61 697.774 366.562 694.776C367.343 694.256 367.864 693.994 367.864 693.994C368.777 693.473 369.819 692.821 370.861 692.17C379.591 723.961 371.252 751.844 351.057 773.864ZM491.122 678.619C484.477 694.906 470.405 736.73 461.936 734.385C454.639 732.43 450.21 700.769 460.502 669.499C465.714 653.732 476.789 634.971 483.303 627.673C493.858 615.947 505.323 612.038 508.191 616.859C511.578 623.114 495.292 668.456 491.122 678.619ZM606.693 733.864C603.826 735.298 601.22 736.339 600.048 735.559C599.135 735.038 601.219 733.083 601.219 733.083C601.219 733.083 615.681 717.578 621.414 710.412C624.672 706.244 628.581 701.423 632.75 695.949V697.513C632.751 716.274 614.771 728.782 606.693 733.864ZM695.812 713.538C693.727 711.974 693.989 707.153 701.024 692.039C703.761 686.046 710.014 676.013 720.828 666.502C722.131 670.411 722.914 674.188 722.783 677.707C722.654 701.16 705.976 709.89 695.812 713.538Z" fill="#CF649A"/>
<g filter="url(#filter2_di)">
<path fill-rule="evenodd" clip-rule="evenodd" d="M976.603 871C978.972 865.339 980.618 859.301 981.427 853H42.5732C43.3819 859.301 45.0282 865.339 47.397 871H976.603Z" fill="white" fill-opacity="0.01"/>
<path d="M982 816H42V834H982V816Z" fill="white" fill-opacity="0.01"/>
</g>
<g filter="url(#filter3_i)">
<path d="M42 328C42 289.34 73.3401 258 112 258H912C950.66 258 982 289.34 982 328V844C982 882.66 950.66 914 912 914H112C73.3401 914 42 882.66 42 844V328Z" fill="white" fill-opacity="0.02"/>
</g>
<defs>
<filter id="filter0_d" x="22" y="112" width="980" height="830" filterUnits="userSpaceOnUse" color-interpolation-filters="sRGB">
<feFlood flood-opacity="0" result="BackgroundImageFix"/>
<feColorMatrix in="SourceAlpha" type="matrix" values="0 0 0 0 0 0 0 0 0 0 0 0 0 0 0 0 0 0 127 0"/>
<feOffset dy="8"/>
<feGaussianBlur stdDeviation="10"/>
<feColorMatrix type="matrix" values="0 0 0 0 0 0 0 0 0 0 0 0 0 0 0 0 0 0 0.5 0"/>
<feBlend mode="normal" in2="BackgroundImageFix" result="effect1_dropShadow"/>
<feBlend mode="normal" in="SourceGraphic" in2="effect1_dropShadow" result="shape"/>
</filter>
<filter id="filter1_ii" x="42" y="24" width="940" height="351.5" filterUnits="userSpaceOnUse" color-interpolation-filters="sRGB">
<feFlood flood-opacity="0" result="BackgroundImageFix"/>
<feBlend mode="normal" in="SourceGraphic" in2="BackgroundImageFix" result="shape"/>
<feColorMatrix in="SourceAlpha" type="matrix" values="0 0 0 0 0 0 0 0 0 0 0 0 0 0 0 0 0 0 127 0" result="hardAlpha"/>
<feOffset dy="-150"/>
<feGaussianBlur stdDeviation="50"/>
<feComposite in2="hardAlpha" operator="arithmetic" k2="-1" k3="1"/>
<feColorMatrix type="matrix" values="0 0 0 0 0 0 0 0 0 0 0 0 0 0 0 0 0 0 0.25 0"/>
<feBlend mode="normal" in2="shape" result="effect1_innerShadow"/>
<feColorMatrix in="SourceAlpha" type="matrix" values="0 0 0 0 0 0 0 0 0 0 0 0 0 0 0 0 0 0 127 0" result="hardAlpha"/>
<feOffset/>
<feGaussianBlur stdDeviation="25"/>
<feComposite in2="hardAlpha" operator="arithmetic" k2="-1" k3="1"/>
<feColorMatrix type="matrix" values="0 0 0 0 0 0 0 0 0 0 0 0 0 0 0 0 0 0 0.12 0"/>
<feBlend mode="normal" in2="effect1_innerShadow" result="effect2_innerShadow"/>
</filter>
<filter id="filter2_di" x="27" y="805" width="970" height="85" filterUnits="userSpaceOnUse" color-interpolation-filters="sRGB">
<feFlood flood-opacity="0" result="BackgroundImageFix"/>
<feColorMatrix in="SourceAlpha" type="matrix" values="0 0 0 0 0 0 0 0 0 0 0 0 0 0 0 0 0 0 127 0"/>
<feOffset dy="4"/>
<feGaussianBlur stdDeviation="7.5"/>
<feColorMatrix type="matrix" values="0 0 0 0 0 0 0 0 0 0 0 0 0 0 0 0 0 0 0.08 0"/>
<feBlend mode="normal" in2="BackgroundImageFix" result="effect1_dropShadow"/>
<feBlend mode="normal" in="SourceGraphic" in2="effect1_dropShadow" result="shape"/>
<feColorMatrix in="SourceAlpha" type="matrix" values="0 0 0 0 0 0 0 0 0 0 0 0 0 0 0 0 0 0 127 0" result="hardAlpha"/>
<feOffset dy="3"/>
<feGaussianBlur stdDeviation="3.5"/>
<feComposite in2="hardAlpha" operator="arithmetic" k2="-1" k3="1"/>
<feColorMatrix type="matrix" values="0 0 0 0 1 0 0 0 0 1 0 0 0 0 1 0 0 0 0.1 0"/>
<feBlend mode="normal" in2="shape" result="effect2_innerShadow"/>
</filter>
<filter id="filter3_i" x="42" y="258" width="940" height="656" filterUnits="userSpaceOnUse" color-interpolation-filters="sRGB">
<feFlood flood-opacity="0" result="BackgroundImageFix"/>
<feBlend mode="normal" in="SourceGraphic" in2="BackgroundImageFix" result="shape"/>
<feColorMatrix in="SourceAlpha" type="matrix" values="0 0 0 0 0 0 0 0 0 0 0 0 0 0 0 0 0 0 127 0" result="hardAlpha"/>
<feOffset/>
<feGaussianBlur stdDeviation="30"/>
<feComposite in2="hardAlpha" operator="arithmetic" k2="-1" k3="1"/>
<feColorMatrix type="matrix" values="0 0 0 0 0 0 0 0 0 0 0 0 0 0 0 0 0 0 0.15 0"/>
<feBlend mode="normal" in2="shape" result="effect1_innerShadow"/>
</filter>
</defs>
</svg>
