<svg width="1024" height="1024" viewBox="0 0 1024 1024" fill="none" xmlns="http://www.w3.org/2000/svg">
<g filter="url(#filter0_d)">
<path d="M42 194V844C42 882.66 73.3401 914 112 914H912C950.66 914 982 882.66 982 844V268C982 229.34 950.66 198 912 198H462.663C443.089 198 424.049 191.619 408.429 179.824L358.571 142.176C342.951 130.381 323.911 124 304.337 124H112C73.3401 124 42 155.34 42 194Z" fill="white"/>
</g>
<g filter="url(#filter1_ii)">
<path d="M982 375.5H42V194C42 155.34 73.3401 124 112 124H304.337C323.911 124 342.951 130.381 358.571 142.176L408.429 179.824C424.049 191.619 443.089 198 462.663 198H912C950.66 198 982 229.34 982 268V375.5Z" fill="#AADF71"/>
</g>
<rect x="42" y="258" width="940" height="656" rx="70" fill="#AADF71"/>
<path d="M491.392 341.334C503.79 334.238 519.938 334.206 532.325 341.334C594.643 376.547 656.98 411.705 719.287 446.939C731.007 453.54 738.846 466.583 738.726 480.086V691.941C738.813 706.003 730.2 719.357 717.836 725.809C655.723 760.828 593.642 795.889 531.54 830.908C518.885 838.143 502.413 837.586 490.155 829.758C471.533 818.963 452.88 808.221 434.256 797.437C430.451 795.168 426.161 793.363 423.474 789.673C425.849 786.471 430.096 786.072 433.548 784.674C441.321 782.202 448.46 778.235 455.601 774.385C457.406 773.149 459.611 773.623 461.342 774.729C477.265 783.859 493.048 793.254 509.025 802.297C512.434 804.264 515.885 801.652 518.798 800.028C579.75 765.579 640.777 731.26 701.718 696.8C703.976 695.714 705.225 693.317 705.041 690.844C705.084 620.958 705.052 551.059 705.063 481.173C705.321 478.366 703.697 475.786 701.159 474.637C639.262 439.779 577.396 404.867 515.509 369.999C514.437 369.262 513.167 368.867 511.866 368.865C510.564 368.863 509.293 369.255 508.219 369.989C446.332 404.867 384.477 439.811 322.59 474.667C320.061 475.818 318.364 478.355 318.665 481.173C318.676 551.059 318.665 620.958 318.665 690.854C318.558 692.061 318.823 693.272 319.425 694.324C320.026 695.375 320.936 696.217 322.031 696.736C338.546 706.101 355.082 715.401 371.607 724.734C380.917 729.745 392.348 732.722 402.605 728.883C411.657 725.636 418.002 716.4 417.829 706.789C417.914 637.31 417.786 567.821 417.893 498.353C417.667 495.269 420.593 492.721 423.591 493.011C431.526 492.958 439.472 492.904 447.407 493.033C450.72 492.958 452.999 496.279 452.589 499.386C452.557 569.305 452.675 639.225 452.536 709.143C452.557 727.777 444.902 748.053 427.666 757.17C406.432 768.17 380.187 765.837 359.21 755.29C341.049 746.226 323.719 735.529 305.881 725.818C293.485 719.402 284.914 705.995 285.002 691.943V480.086C284.872 466.303 293.022 453.024 305.106 446.519C367.209 411.472 429.3 376.398 491.392 341.334Z" fill="#7AAF40"/>
<path d="M545.569 488.087C572.655 486.344 601.651 487.054 626.024 500.397C644.895 510.622 655.357 532.082 655.69 553.047C655.163 555.875 652.207 557.435 649.507 557.241C641.649 557.23 633.788 557.348 625.93 557.188C622.596 557.316 620.659 554.242 620.24 551.295C617.982 541.264 612.512 531.329 603.07 526.491C588.577 519.234 571.772 519.599 555.967 519.751C544.43 520.363 532.023 521.362 522.249 528.147C514.744 533.286 512.465 543.661 515.143 552.016C517.668 558.016 524.594 559.951 530.26 561.736C562.902 570.273 597.491 569.423 629.509 580.658C642.765 585.238 655.733 594.142 660.27 608.021C666.205 626.623 663.604 648.858 650.369 663.791C639.636 676.08 624.005 682.769 608.414 686.402C587.674 691.026 566.15 691.144 545.087 689.091C525.281 686.833 504.671 681.629 489.381 668.134C476.307 656.782 469.921 639.094 470.555 622.022C470.706 619.139 473.577 617.128 476.339 617.365C484.252 617.301 492.166 617.279 500.08 617.376C503.241 617.149 505.584 619.881 505.746 622.86C507.206 632.418 510.798 642.449 519.132 648.115C535.216 658.492 555.397 657.781 573.814 658.071C589.072 657.395 606.199 657.19 618.65 647.105C625.219 641.354 627.166 631.73 625.39 623.452C623.467 616.462 616.155 613.205 609.876 611.075C577.653 600.882 542.677 604.581 510.766 593.054C497.811 588.476 485.283 579.819 480.306 566.51C473.361 547.673 476.543 524.373 491.165 509.944C505.422 495.591 526.002 490.064 545.569 488.085V488.087Z" fill="#7AAF40"/>
<g filter="url(#filter2_di)">
<path fill-rule="evenodd" clip-rule="evenodd" d="M976.603 871C978.972 865.339 980.618 859.301 981.427 853H42.5732C43.3819 859.301 45.0282 865.339 47.397 871H976.603Z" fill="white" fill-opacity="0.01"/>
<path d="M982 816H42V834H982V816Z" fill="white" fill-opacity="0.01"/>
</g>
<g filter="url(#filter3_i)">
<path d="M42 328C42 289.34 73.3401 258 112 258H912C950.66 258 982 289.34 982 328V844C982 882.66 950.66 914 912 914H112C73.3401 914 42 882.66 42 844V328Z" fill="white" fill-opacity="0.02"/>
</g>
<defs>
<filter id="filter0_d" x="22" y="112" width="980" height="830" filterUnits="userSpaceOnUse" color-interpolation-filters="sRGB">
<feFlood flood-opacity="0" result="BackgroundImageFix"/>
<feColorMatrix in="SourceAlpha" type="matrix" values="0 0 0 0 0 0 0 0 0 0 0 0 0 0 0 0 0 0 127 0"/>
<feOffset dy="8"/>
<feGaussianBlur stdDeviation="10"/>
<feColorMatrix type="matrix" values="0 0 0 0 0 0 0 0 0 0 0 0 0 0 0 0 0 0 0.5 0"/>
<feBlend mode="normal" in2="BackgroundImageFix" result="effect1_dropShadow"/>
<feBlend mode="normal" in="SourceGraphic" in2="effect1_dropShadow" result="shape"/>
</filter>
<filter id="filter1_ii" x="42" y="24" width="940" height="351.5" filterUnits="userSpaceOnUse" color-interpolation-filters="sRGB">
<feFlood flood-opacity="0" result="BackgroundImageFix"/>
<feBlend mode="normal" in="SourceGraphic" in2="BackgroundImageFix" result="shape"/>
<feColorMatrix in="SourceAlpha" type="matrix" values="0 0 0 0 0 0 0 0 0 0 0 0 0 0 0 0 0 0 127 0" result="hardAlpha"/>
<feOffset dy="-150"/>
<feGaussianBlur stdDeviation="50"/>
<feComposite in2="hardAlpha" operator="arithmetic" k2="-1" k3="1"/>
<feColorMatrix type="matrix" values="0 0 0 0 0 0 0 0 0 0 0 0 0 0 0 0 0 0 0.25 0"/>
<feBlend mode="normal" in2="shape" result="effect1_innerShadow"/>
<feColorMatrix in="SourceAlpha" type="matrix" values="0 0 0 0 0 0 0 0 0 0 0 0 0 0 0 0 0 0 127 0" result="hardAlpha"/>
<feOffset/>
<feGaussianBlur stdDeviation="25"/>
<feComposite in2="hardAlpha" operator="arithmetic" k2="-1" k3="1"/>
<feColorMatrix type="matrix" values="0 0 0 0 0 0 0 0 0 0 0 0 0 0 0 0 0 0 0.12 0"/>
<feBlend mode="normal" in2="effect1_innerShadow" result="effect2_innerShadow"/>
</filter>
<filter id="filter2_di" x="27" y="805" width="970" height="85" filterUnits="userSpaceOnUse" color-interpolation-filters="sRGB">
<feFlood flood-opacity="0" result="BackgroundImageFix"/>
<feColorMatrix in="SourceAlpha" type="matrix" values="0 0 0 0 0 0 0 0 0 0 0 0 0 0 0 0 0 0 127 0"/>
<feOffset dy="4"/>
<feGaussianBlur stdDeviation="7.5"/>
<feColorMatrix type="matrix" values="0 0 0 0 0 0 0 0 0 0 0 0 0 0 0 0 0 0 0.08 0"/>
<feBlend mode="normal" in2="BackgroundImageFix" result="effect1_dropShadow"/>
<feBlend mode="normal" in="SourceGraphic" in2="effect1_dropShadow" result="shape"/>
<feColorMatrix in="SourceAlpha" type="matrix" values="0 0 0 0 0 0 0 0 0 0 0 0 0 0 0 0 0 0 127 0" result="hardAlpha"/>
<feOffset dy="3"/>
<feGaussianBlur stdDeviation="3.5"/>
<feComposite in2="hardAlpha" operator="arithmetic" k2="-1" k3="1"/>
<feColorMatrix type="matrix" values="0 0 0 0 1 0 0 0 0 1 0 0 0 0 1 0 0 0 0.1 0"/>
<feBlend mode="normal" in2="shape" result="effect2_innerShadow"/>
</filter>
<filter id="filter3_i" x="42" y="258" width="940" height="656" filterUnits="userSpaceOnUse" color-interpolation-filters="sRGB">
<feFlood flood-opacity="0" result="BackgroundImageFix"/>
<feBlend mode="normal" in="SourceGraphic" in2="BackgroundImageFix" result="shape"/>
<feColorMatrix in="SourceAlpha" type="matrix" values="0 0 0 0 0 0 0 0 0 0 0 0 0 0 0 0 0 0 127 0" result="hardAlpha"/>
<feOffset/>
<feGaussianBlur stdDeviation="30"/>
<feComposite in2="hardAlpha" operator="arithmetic" k2="-1" k3="1"/>
<feColorMatrix type="matrix" values="0 0 0 0 0 0 0 0 0 0 0 0 0 0 0 0 0 0 0.15 0"/>
<feBlend mode="normal" in2="shape" result="effect1_innerShadow"/>
</filter>
</defs>
</svg>
