<svg width="1024" height="1024" viewBox="0 0 1024 1024" fill="none" xmlns="http://www.w3.org/2000/svg">
<g filter="url(#filter0_d)">
<path d="M42 194V844C42 882.66 73.3401 914 112 914H912C950.66 914 982 882.66 982 844V268C982 229.34 950.66 198 912 198H462.663C443.089 198 424.049 191.619 408.429 179.824L358.571 142.176C342.951 130.381 323.911 124 304.337 124H112C73.3401 124 42 155.34 42 194Z" fill="white"/>
</g>
<g filter="url(#filter1_ii)">
<path d="M982 375.5H42V194C42 155.34 73.3401 124 112 124H304.337C323.911 124 342.951 130.381 358.571 142.176L408.429 179.824C424.049 191.619 443.089 198 462.663 198H912C950.66 198 982 229.34 982 268V375.5Z" fill="#F7DF1E"/>
</g>
<rect x="42" y="258" width="940" height="656" rx="70" fill="#F7DF1E"/>
<path d="M445.003 727.905L494.069 698.209C503.537 714.993 512.148 729.195 532.804 729.195C552.603 729.195 565.089 721.45 565.089 691.324V486.446H625.344V692.175C625.344 754.584 588.761 782.992 535.386 782.992C487.184 782.992 459.204 758.028 445 727.9L445.003 727.905ZM658.073 721.448L707.134 693.042C720.051 714.134 736.837 729.628 766.533 729.628C791.502 729.628 807.422 717.145 807.422 699.927C807.422 679.269 791.066 671.95 763.52 659.903L748.459 653.441C704.985 634.939 676.149 611.695 676.149 562.629C676.149 517.434 710.581 483 764.384 483C802.69 483 830.237 496.345 850.034 531.207L803.116 561.339C792.784 542.832 781.598 535.516 764.381 535.516C746.733 535.516 735.543 546.706 735.543 561.339C735.543 579.415 746.733 586.736 772.557 597.927L787.62 604.382C838.84 626.335 867.677 648.714 867.677 699.068C867.677 753.305 825.067 783 767.823 783C711.871 783 675.716 756.315 658.07 721.45" fill="#423E21"/>
<g filter="url(#filter2_di)">
<path fill-rule="evenodd" clip-rule="evenodd" d="M976.603 871C978.972 865.339 980.618 859.301 981.427 853H42.5732C43.3819 859.301 45.0282 865.339 47.397 871H976.603Z" fill="white" fill-opacity="0.01"/>
<path d="M982 816H42V834H982V816Z" fill="white" fill-opacity="0.01"/>
</g>
<g filter="url(#filter3_i)">
<path d="M42 328C42 289.34 73.3401 258 112 258H912C950.66 258 982 289.34 982 328V844C982 882.66 950.66 914 912 914H112C73.3401 914 42 882.66 42 844V328Z" fill="white" fill-opacity="0.02"/>
</g>
<defs>
<filter id="filter0_d" x="22" y="112" width="980" height="830" filterUnits="userSpaceOnUse" color-interpolation-filters="sRGB">
<feFlood flood-opacity="0" result="BackgroundImageFix"/>
<feColorMatrix in="SourceAlpha" type="matrix" values="0 0 0 0 0 0 0 0 0 0 0 0 0 0 0 0 0 0 127 0"/>
<feOffset dy="8"/>
<feGaussianBlur stdDeviation="10"/>
<feColorMatrix type="matrix" values="0 0 0 0 0 0 0 0 0 0 0 0 0 0 0 0 0 0 0.5 0"/>
<feBlend mode="normal" in2="BackgroundImageFix" result="effect1_dropShadow"/>
<feBlend mode="normal" in="SourceGraphic" in2="effect1_dropShadow" result="shape"/>
</filter>
<filter id="filter1_ii" x="42" y="24" width="940" height="351.5" filterUnits="userSpaceOnUse" color-interpolation-filters="sRGB">
<feFlood flood-opacity="0" result="BackgroundImageFix"/>
<feBlend mode="normal" in="SourceGraphic" in2="BackgroundImageFix" result="shape"/>
<feColorMatrix in="SourceAlpha" type="matrix" values="0 0 0 0 0 0 0 0 0 0 0 0 0 0 0 0 0 0 127 0" result="hardAlpha"/>
<feOffset dy="-150"/>
<feGaussianBlur stdDeviation="50"/>
<feComposite in2="hardAlpha" operator="arithmetic" k2="-1" k3="1"/>
<feColorMatrix type="matrix" values="0 0 0 0 0 0 0 0 0 0 0 0 0 0 0 0 0 0 0.25 0"/>
<feBlend mode="normal" in2="shape" result="effect1_innerShadow"/>
<feColorMatrix in="SourceAlpha" type="matrix" values="0 0 0 0 0 0 0 0 0 0 0 0 0 0 0 0 0 0 127 0" result="hardAlpha"/>
<feOffset/>
<feGaussianBlur stdDeviation="25"/>
<feComposite in2="hardAlpha" operator="arithmetic" k2="-1" k3="1"/>
<feColorMatrix type="matrix" values="0 0 0 0 0 0 0 0 0 0 0 0 0 0 0 0 0 0 0.12 0"/>
<feBlend mode="normal" in2="effect1_innerShadow" result="effect2_innerShadow"/>
</filter>
<filter id="filter2_di" x="27" y="805" width="970" height="85" filterUnits="userSpaceOnUse" color-interpolation-filters="sRGB">
<feFlood flood-opacity="0" result="BackgroundImageFix"/>
<feColorMatrix in="SourceAlpha" type="matrix" values="0 0 0 0 0 0 0 0 0 0 0 0 0 0 0 0 0 0 127 0"/>
<feOffset dy="4"/>
<feGaussianBlur stdDeviation="7.5"/>
<feColorMatrix type="matrix" values="0 0 0 0 0 0 0 0 0 0 0 0 0 0 0 0 0 0 0.08 0"/>
<feBlend mode="normal" in2="BackgroundImageFix" result="effect1_dropShadow"/>
<feBlend mode="normal" in="SourceGraphic" in2="effect1_dropShadow" result="shape"/>
<feColorMatrix in="SourceAlpha" type="matrix" values="0 0 0 0 0 0 0 0 0 0 0 0 0 0 0 0 0 0 127 0" result="hardAlpha"/>
<feOffset dy="3"/>
<feGaussianBlur stdDeviation="3.5"/>
<feComposite in2="hardAlpha" operator="arithmetic" k2="-1" k3="1"/>
<feColorMatrix type="matrix" values="0 0 0 0 1 0 0 0 0 1 0 0 0 0 1 0 0 0 0.1 0"/>
<feBlend mode="normal" in2="shape" result="effect2_innerShadow"/>
</filter>
<filter id="filter3_i" x="42" y="258" width="940" height="656" filterUnits="userSpaceOnUse" color-interpolation-filters="sRGB">
<feFlood flood-opacity="0" result="BackgroundImageFix"/>
<feBlend mode="normal" in="SourceGraphic" in2="BackgroundImageFix" result="shape"/>
<feColorMatrix in="SourceAlpha" type="matrix" values="0 0 0 0 0 0 0 0 0 0 0 0 0 0 0 0 0 0 127 0" result="hardAlpha"/>
<feOffset/>
<feGaussianBlur stdDeviation="30"/>
<feComposite in2="hardAlpha" operator="arithmetic" k2="-1" k3="1"/>
<feColorMatrix type="matrix" values="0 0 0 0 0 0 0 0 0 0 0 0 0 0 0 0 0 0 0.15 0"/>
<feBlend mode="normal" in2="shape" result="effect1_innerShadow"/>
</filter>
</defs>
</svg>
