<svg width="1024" height="1024" viewBox="0 0 1024 1024" fill="none" xmlns="http://www.w3.org/2000/svg">
<g filter="url(#filter0_d)">
<path d="M42 194V844C42 882.66 73.3401 914 112 914H912C950.66 914 982 882.66 982 844V268C982 229.34 950.66 198 912 198H462.663C443.089 198 424.049 191.619 408.429 179.824L358.571 142.176C342.951 130.381 323.911 124 304.337 124H112C73.3401 124 42 155.34 42 194Z" fill="white"/>
</g>
<g filter="url(#filter1_ii)">
<path d="M982 375.5H42V194C42 155.34 73.3401 124 112 124H304.337C323.911 124 342.951 130.381 358.571 142.176L408.429 179.824C424.049 191.619 443.089 198 462.663 198H912C950.66 198 982 229.34 982 268V375.5Z" fill="#007ACC"/>
</g>
<path d="M42 328C42 289.34 73.3401 258 112 258H912C950.66 258 982 289.34 982 328V844C982 882.66 950.66 914 912 914H112C73.3401 914 42 882.66 42 844V328Z" fill="#007ACC"/>
<path d="M409 513.27V539.692H493.292V779.601H553.107V539.692H637.399V513.756C637.399 499.167 637.399 487.334 636.751 487.01C636.751 486.523 585.365 486.361 522.956 486.361L409.486 486.847V513.432L409 513.27ZM787.828 486.199C804.363 490.089 817.006 497.546 828.353 509.379C834.351 515.863 843.267 527.211 843.915 530.128C843.915 531.101 815.872 550.067 798.851 560.603C798.203 561.09 795.609 558.334 793.016 554.119C784.586 542.124 775.995 536.937 762.541 535.964C743.089 534.667 730.121 544.879 730.121 561.9C730.121 567.087 731.093 570.005 733.038 574.22C737.415 583.135 745.52 588.484 770.646 599.507C817.006 619.446 837.107 632.576 849.264 651.38C863.043 672.453 866.123 705.521 856.883 730.322C846.509 757.393 821.221 775.711 785.073 781.708C773.726 783.654 747.79 783.329 735.632 781.222C709.696 776.359 684.895 763.391 669.657 746.695C663.66 740.211 652.15 722.866 652.799 721.731L658.959 717.841L683.274 703.738L701.591 693.039L705.806 698.713C711.155 707.142 723.15 718.489 730.121 722.38C751.194 733.24 779.399 731.781 793.34 719.138C799.337 713.626 801.931 707.791 801.931 699.686C801.931 692.229 800.796 688.825 797.068 683.151C791.881 676.019 781.506 670.183 752.328 657.215C718.774 642.95 704.509 633.873 691.217 619.932C683.598 611.503 676.628 598.373 673.386 587.512C670.954 578.11 670.144 555.092 672.413 545.852C679.383 513.432 703.86 490.738 738.874 484.254C750.221 481.984 776.968 482.957 788.153 485.875L787.828 486.199Z" fill="#E6F5FF"/>
<g filter="url(#filter2_di)">
<path fill-rule="evenodd" clip-rule="evenodd" d="M976.603 871C978.972 865.339 980.618 859.301 981.427 853H42.5732C43.3819 859.301 45.0282 865.339 47.397 871H976.603Z" fill="white" fill-opacity="0.01"/>
<path d="M982 816H42V834H982V816Z" fill="white" fill-opacity="0.01"/>
</g>
<g filter="url(#filter3_i)">
<path d="M42 328C42 289.34 73.3401 258 112 258H912C950.66 258 982 289.34 982 328V844C982 882.66 950.66 914 912 914H112C73.3401 914 42 882.66 42 844V328Z" fill="white" fill-opacity="0.02"/>
</g>
<defs>
<filter id="filter0_d" x="22" y="112" width="980" height="830" filterUnits="userSpaceOnUse" color-interpolation-filters="sRGB">
<feFlood flood-opacity="0" result="BackgroundImageFix"/>
<feColorMatrix in="SourceAlpha" type="matrix" values="0 0 0 0 0 0 0 0 0 0 0 0 0 0 0 0 0 0 127 0"/>
<feOffset dy="8"/>
<feGaussianBlur stdDeviation="10"/>
<feColorMatrix type="matrix" values="0 0 0 0 0 0 0 0 0 0 0 0 0 0 0 0 0 0 0.5 0"/>
<feBlend mode="normal" in2="BackgroundImageFix" result="effect1_dropShadow"/>
<feBlend mode="normal" in="SourceGraphic" in2="effect1_dropShadow" result="shape"/>
</filter>
<filter id="filter1_ii" x="42" y="24" width="940" height="351.5" filterUnits="userSpaceOnUse" color-interpolation-filters="sRGB">
<feFlood flood-opacity="0" result="BackgroundImageFix"/>
<feBlend mode="normal" in="SourceGraphic" in2="BackgroundImageFix" result="shape"/>
<feColorMatrix in="SourceAlpha" type="matrix" values="0 0 0 0 0 0 0 0 0 0 0 0 0 0 0 0 0 0 127 0" result="hardAlpha"/>
<feOffset dy="-150"/>
<feGaussianBlur stdDeviation="50"/>
<feComposite in2="hardAlpha" operator="arithmetic" k2="-1" k3="1"/>
<feColorMatrix type="matrix" values="0 0 0 0 0 0 0 0 0 0 0 0 0 0 0 0 0 0 0.25 0"/>
<feBlend mode="normal" in2="shape" result="effect1_innerShadow"/>
<feColorMatrix in="SourceAlpha" type="matrix" values="0 0 0 0 0 0 0 0 0 0 0 0 0 0 0 0 0 0 127 0" result="hardAlpha"/>
<feOffset/>
<feGaussianBlur stdDeviation="25"/>
<feComposite in2="hardAlpha" operator="arithmetic" k2="-1" k3="1"/>
<feColorMatrix type="matrix" values="0 0 0 0 0 0 0 0 0 0 0 0 0 0 0 0 0 0 0.12 0"/>
<feBlend mode="normal" in2="effect1_innerShadow" result="effect2_innerShadow"/>
</filter>
<filter id="filter2_di" x="27" y="805" width="970" height="85" filterUnits="userSpaceOnUse" color-interpolation-filters="sRGB">
<feFlood flood-opacity="0" result="BackgroundImageFix"/>
<feColorMatrix in="SourceAlpha" type="matrix" values="0 0 0 0 0 0 0 0 0 0 0 0 0 0 0 0 0 0 127 0"/>
<feOffset dy="4"/>
<feGaussianBlur stdDeviation="7.5"/>
<feColorMatrix type="matrix" values="0 0 0 0 0 0 0 0 0 0 0 0 0 0 0 0 0 0 0.08 0"/>
<feBlend mode="normal" in2="BackgroundImageFix" result="effect1_dropShadow"/>
<feBlend mode="normal" in="SourceGraphic" in2="effect1_dropShadow" result="shape"/>
<feColorMatrix in="SourceAlpha" type="matrix" values="0 0 0 0 0 0 0 0 0 0 0 0 0 0 0 0 0 0 127 0" result="hardAlpha"/>
<feOffset dy="3"/>
<feGaussianBlur stdDeviation="3.5"/>
<feComposite in2="hardAlpha" operator="arithmetic" k2="-1" k3="1"/>
<feColorMatrix type="matrix" values="0 0 0 0 1 0 0 0 0 1 0 0 0 0 1 0 0 0 0.1 0"/>
<feBlend mode="normal" in2="shape" result="effect2_innerShadow"/>
</filter>
<filter id="filter3_i" x="42" y="258" width="940" height="656" filterUnits="userSpaceOnUse" color-interpolation-filters="sRGB">
<feFlood flood-opacity="0" result="BackgroundImageFix"/>
<feBlend mode="normal" in="SourceGraphic" in2="BackgroundImageFix" result="shape"/>
<feColorMatrix in="SourceAlpha" type="matrix" values="0 0 0 0 0 0 0 0 0 0 0 0 0 0 0 0 0 0 127 0" result="hardAlpha"/>
<feOffset/>
<feGaussianBlur stdDeviation="30"/>
<feComposite in2="hardAlpha" operator="arithmetic" k2="-1" k3="1"/>
<feColorMatrix type="matrix" values="0 0 0 0 0 0 0 0 0 0 0 0 0 0 0 0 0 0 0.15 0"/>
<feBlend mode="normal" in2="shape" result="effect1_innerShadow"/>
</filter>
</defs>
</svg>
