<svg width="1024" height="1024" viewBox="0 0 1024 1024" fill="none" xmlns="http://www.w3.org/2000/svg">
<g filter="url(#filter0_d)">
<path d="M42 194V844C42 882.66 73.3401 914 112 914H912C950.66 914 982 882.66 982 844V268C982 229.34 950.66 198 912 198H462.663C443.089 198 424.049 191.619 408.429 179.824L358.571 142.176C342.951 130.381 323.911 124 304.337 124H112C73.3401 124 42 155.34 42 194Z" fill="white"/>
</g>
<g filter="url(#filter1_ii)">
<path d="M982 375.5H42V194C42 155.34 73.3401 124 112 124H304.337C323.911 124 342.951 130.381 358.571 142.176L408.429 179.824C424.049 191.619 443.089 198 462.663 198H912C950.66 198 982 229.34 982 268V375.5Z" fill="#6B375A"/>
</g>
<rect x="42" y="258" width="940" height="656" rx="70" fill="#6B375A"/>
<path d="M329.452 717.019L311.11 706.411L515.591 352.26L533.933 362.868L329.452 717.019Z" fill="#E10098"/>
<path d="M306.936 678.134H715.899V699.334H306.936V678.134Z" fill="#E10098"/>
<path d="M519.598 808.146L315.024 690.04L325.632 671.698L530.19 789.774L519.598 808.146ZM697.3 500.308L492.742 382.217L503.35 363.875L707.908 481.981L697.3 500.308Z" fill="#E10098"/>
<path d="M325.678 500.249L315.07 481.907L519.796 363.938L530.404 382.28L325.678 500.249Z" fill="#E10098"/>
<path d="M693.523 717.019L489.026 362.868L507.368 352.26L711.85 706.411L693.523 717.019ZM323.155 467.845H344.324V704.058H323.155V467.845ZM678.62 467.845H699.821V704.058H678.605L678.62 467.845Z" fill="#E10098"/>
<path d="M515.974 799.178L506.711 783.129L684.627 680.414L693.89 696.464L515.974 799.178Z" fill="#E10098"/>
<path d="M727.914 710.954C721.996 721.19 712.259 728.66 700.839 731.723C689.419 734.787 677.25 733.194 667.004 727.294C656.768 721.376 649.298 711.638 646.235 700.218C643.171 688.799 644.764 676.63 650.664 666.383C656.582 656.147 666.32 648.678 677.74 645.614C689.159 642.551 701.328 644.144 711.575 650.044C733.035 662.272 740.31 689.785 727.929 710.954H727.914ZM372.204 505.525C366.286 515.761 356.548 523.231 345.128 526.294C333.709 529.358 321.54 527.764 311.293 521.864C301.057 515.947 293.588 506.209 290.524 494.789C287.461 483.369 289.054 471.201 294.954 460.954C300.872 450.718 310.609 443.248 322.029 440.185C333.449 437.122 345.618 438.715 355.864 444.615C377.187 456.842 384.447 484.355 372.219 505.525H372.204ZM295.091 710.954C282.833 689.632 290.108 662.44 311.446 650.044C332.769 637.785 359.961 645.061 372.357 666.399C384.615 687.721 377.339 714.913 356.002 727.309C334.542 739.568 307.35 732.292 295.091 710.954ZM650.817 505.525C638.559 484.202 645.834 457.011 667.172 444.615C688.494 432.356 715.686 439.632 728.082 460.969C740.341 482.292 733.065 509.484 711.727 521.88C701.481 527.78 689.312 529.373 677.892 526.309C666.473 523.246 656.735 515.776 650.817 505.54V505.525ZM511.465 836C486.825 836 466.909 816.084 466.909 791.444C466.909 766.805 486.871 746.889 511.465 746.889C536.058 746.889 556.02 766.805 556.02 791.444C556 803.255 551.299 814.576 542.948 822.928C534.596 831.279 523.275 835.98 511.465 836ZM511.465 425.111C486.825 425.111 466.909 405.195 466.909 380.556C466.909 355.916 486.871 336 511.465 336C536.058 336 556.02 355.916 556.02 380.556C556.03 386.409 554.885 392.208 552.649 397.618C550.413 403.028 547.132 407.944 542.992 412.083C538.853 416.223 533.937 419.504 528.527 421.74C523.117 423.976 517.318 425.121 511.465 425.111Z" fill="#E10098"/>
<g filter="url(#filter2_di)">
<path fill-rule="evenodd" clip-rule="evenodd" d="M976.603 871C978.972 865.339 980.618 859.301 981.427 853H42.5732C43.3819 859.301 45.0282 865.339 47.397 871H976.603Z" fill="white" fill-opacity="0.01"/>
<path d="M982 816H42V834H982V816Z" fill="white" fill-opacity="0.01"/>
</g>
<g filter="url(#filter3_i)">
<path d="M42 328C42 289.34 73.3401 258 112 258H912C950.66 258 982 289.34 982 328V844C982 882.66 950.66 914 912 914H112C73.3401 914 42 882.66 42 844V328Z" fill="white" fill-opacity="0.02"/>
</g>
<defs>
<filter id="filter0_d" x="22" y="112" width="980" height="830" filterUnits="userSpaceOnUse" color-interpolation-filters="sRGB">
<feFlood flood-opacity="0" result="BackgroundImageFix"/>
<feColorMatrix in="SourceAlpha" type="matrix" values="0 0 0 0 0 0 0 0 0 0 0 0 0 0 0 0 0 0 127 0"/>
<feOffset dy="8"/>
<feGaussianBlur stdDeviation="10"/>
<feColorMatrix type="matrix" values="0 0 0 0 0 0 0 0 0 0 0 0 0 0 0 0 0 0 0.5 0"/>
<feBlend mode="normal" in2="BackgroundImageFix" result="effect1_dropShadow"/>
<feBlend mode="normal" in="SourceGraphic" in2="effect1_dropShadow" result="shape"/>
</filter>
<filter id="filter1_ii" x="42" y="24" width="940" height="351.5" filterUnits="userSpaceOnUse" color-interpolation-filters="sRGB">
<feFlood flood-opacity="0" result="BackgroundImageFix"/>
<feBlend mode="normal" in="SourceGraphic" in2="BackgroundImageFix" result="shape"/>
<feColorMatrix in="SourceAlpha" type="matrix" values="0 0 0 0 0 0 0 0 0 0 0 0 0 0 0 0 0 0 127 0" result="hardAlpha"/>
<feOffset dy="-150"/>
<feGaussianBlur stdDeviation="50"/>
<feComposite in2="hardAlpha" operator="arithmetic" k2="-1" k3="1"/>
<feColorMatrix type="matrix" values="0 0 0 0 0 0 0 0 0 0 0 0 0 0 0 0 0 0 0.25 0"/>
<feBlend mode="normal" in2="shape" result="effect1_innerShadow"/>
<feColorMatrix in="SourceAlpha" type="matrix" values="0 0 0 0 0 0 0 0 0 0 0 0 0 0 0 0 0 0 127 0" result="hardAlpha"/>
<feOffset/>
<feGaussianBlur stdDeviation="25"/>
<feComposite in2="hardAlpha" operator="arithmetic" k2="-1" k3="1"/>
<feColorMatrix type="matrix" values="0 0 0 0 0 0 0 0 0 0 0 0 0 0 0 0 0 0 0.12 0"/>
<feBlend mode="normal" in2="effect1_innerShadow" result="effect2_innerShadow"/>
</filter>
<filter id="filter2_di" x="27" y="805" width="970" height="85" filterUnits="userSpaceOnUse" color-interpolation-filters="sRGB">
<feFlood flood-opacity="0" result="BackgroundImageFix"/>
<feColorMatrix in="SourceAlpha" type="matrix" values="0 0 0 0 0 0 0 0 0 0 0 0 0 0 0 0 0 0 127 0"/>
<feOffset dy="4"/>
<feGaussianBlur stdDeviation="7.5"/>
<feColorMatrix type="matrix" values="0 0 0 0 0 0 0 0 0 0 0 0 0 0 0 0 0 0 0.08 0"/>
<feBlend mode="normal" in2="BackgroundImageFix" result="effect1_dropShadow"/>
<feBlend mode="normal" in="SourceGraphic" in2="effect1_dropShadow" result="shape"/>
<feColorMatrix in="SourceAlpha" type="matrix" values="0 0 0 0 0 0 0 0 0 0 0 0 0 0 0 0 0 0 127 0" result="hardAlpha"/>
<feOffset dy="3"/>
<feGaussianBlur stdDeviation="3.5"/>
<feComposite in2="hardAlpha" operator="arithmetic" k2="-1" k3="1"/>
<feColorMatrix type="matrix" values="0 0 0 0 1 0 0 0 0 1 0 0 0 0 1 0 0 0 0.1 0"/>
<feBlend mode="normal" in2="shape" result="effect2_innerShadow"/>
</filter>
<filter id="filter3_i" x="42" y="258" width="940" height="656" filterUnits="userSpaceOnUse" color-interpolation-filters="sRGB">
<feFlood flood-opacity="0" result="BackgroundImageFix"/>
<feBlend mode="normal" in="SourceGraphic" in2="BackgroundImageFix" result="shape"/>
<feColorMatrix in="SourceAlpha" type="matrix" values="0 0 0 0 0 0 0 0 0 0 0 0 0 0 0 0 0 0 127 0" result="hardAlpha"/>
<feOffset/>
<feGaussianBlur stdDeviation="30"/>
<feComposite in2="hardAlpha" operator="arithmetic" k2="-1" k3="1"/>
<feColorMatrix type="matrix" values="0 0 0 0 0 0 0 0 0 0 0 0 0 0 0 0 0 0 0.15 0"/>
<feBlend mode="normal" in2="shape" result="effect1_innerShadow"/>
</filter>
</defs>
</svg>
