<svg width="1024" height="1024" viewBox="0 0 1024 1024" fill="none" xmlns="http://www.w3.org/2000/svg">
<g filter="url(#filter0_d)">
<rect x="100" y="100" width="824" height="824" rx="179" fill="url(#paint0_linear)"/>
</g>
<g filter="url(#filter1_d)">
<path fill-rule="evenodd" clip-rule="evenodd" d="M289.99 295.527C289.99 295.527 337.367 393.224 448.201 390.468C680.469 384.641 721.198 263.478 727.025 245.996C732.852 228.515 741.769 231.163 743.83 247.319C819.583 934.922 218.117 639.898 196.756 522.786C316.212 487.823 287.076 420.811 287.076 420.811L289.99 295.527Z" fill="url(#paint1_radial)"/>
<path fill-rule="evenodd" clip-rule="evenodd" d="M378.388 585.574C489.456 607.789 546.018 587.191 579.121 561.63C570.38 550.34 555.448 537.958 555.448 537.958C555.448 537.958 594.234 548.736 607.892 566.365C621.511 583.944 612.949 594.774 609.385 617.266C601.45 597.511 586.64 590.103 584.635 582.254C554.865 623.407 480.695 621.698 378.388 585.574H378.388Z" fill="url(#paint2_linear)"/>
<path d="M558.721 593.52C561.457 588.891 565.662 584.317 572.026 581.223C573.21 581.587 574.462 582.07 575.779 582.684C575.779 582.684 680.486 612.92 737.288 654.476L722.019 684.883C654.015 665.329 564.469 601.134 564.469 601.134C561.663 598.767 559.769 596.116 558.721 593.52Z" fill="url(#paint3_linear)"/>
<path d="M794.838 712.909L803.012 694.815L739.598 654.189L734.703 651.392L731.32 648.009C722.108 653.778 710.291 672.048 713.84 684.096L717.787 684.66L723.866 687.001L794.838 712.909Z" fill="url(#paint4_linear)"/>
<path d="M887 789.751C867.23 722.642 860.218 669.358 808.553 674.1C766.918 677.921 764.003 737.577 807.027 754.039C848.472 769.897 887 789.751 887 789.751Z" fill="url(#paint5_radial)"/>
<path fill-rule="evenodd" clip-rule="evenodd" d="M410.904 442.664C410.906 451.465 409.175 460.181 405.808 468.313C402.441 476.445 397.506 483.835 391.283 490.059C385.06 496.284 377.672 501.221 369.54 504.59C361.409 507.959 352.694 509.693 343.892 509.693C335.09 509.693 326.375 507.959 318.244 504.59C310.112 501.221 302.724 496.284 296.501 490.059C290.279 483.835 285.343 476.445 281.976 468.313C278.609 460.181 276.878 451.465 276.88 442.664C276.878 433.862 278.609 425.146 281.976 417.014C285.343 408.882 290.279 401.493 296.501 395.268C302.724 389.044 310.112 384.106 318.244 380.737C326.375 377.369 335.09 375.635 343.892 375.635C352.694 375.635 361.409 377.369 369.54 380.737C377.672 384.106 385.06 389.044 391.283 395.268C397.506 401.493 402.441 408.882 405.808 417.014C409.175 425.146 410.906 433.862 410.904 442.664Z" fill="url(#paint6_radial)"/>
<path fill-rule="evenodd" clip-rule="evenodd" d="M277.412 467.913C293.009 489.533 301.869 514.667 302.041 537.787C302.214 560.907 293.685 580.118 278.332 591.195C262.979 602.271 242.058 604.305 220.173 596.85C198.287 589.395 177.229 573.06 161.632 551.44C146.035 529.82 137.175 504.685 137.003 481.565C136.83 458.445 145.359 439.234 160.712 428.158C176.065 417.081 196.986 415.047 218.871 422.503C240.757 429.958 261.815 446.293 277.412 467.913Z" fill="url(#paint7_radial)"/>
<path fill-rule="evenodd" clip-rule="evenodd" d="M391.826 452.592C391.827 456.83 390.994 461.027 389.373 464.942C387.752 468.858 385.375 472.416 382.379 475.413C379.383 478.41 375.826 480.788 371.91 482.41C367.995 484.032 363.799 484.867 359.561 484.867C355.323 484.867 351.127 484.032 347.211 482.41C343.296 480.788 339.739 478.41 336.743 475.413C333.747 472.416 331.37 468.858 329.749 464.942C328.128 461.027 327.295 456.83 327.296 452.592C327.295 448.354 328.128 444.157 329.749 440.242C331.37 436.326 333.747 432.768 336.743 429.771C339.739 426.774 343.296 424.396 347.211 422.774C351.127 421.152 355.323 420.317 359.561 420.317C363.799 420.317 367.995 421.152 371.91 422.774C375.826 424.396 379.383 426.774 382.379 429.771C385.375 432.768 387.752 436.326 389.373 440.242C390.994 444.157 391.827 448.354 391.826 452.592Z" fill="#2E3436" stroke="black" stroke-width="1.39874" stroke-miterlimit="10"/>
<path fill-rule="evenodd" clip-rule="evenodd" d="M215.153 473.256C215.154 477.848 214.401 482.395 212.937 486.638C211.473 490.881 209.327 494.736 206.621 497.984C203.916 501.231 200.704 503.807 197.168 505.565C193.633 507.322 189.844 508.227 186.017 508.227C182.19 508.227 178.401 507.322 174.866 505.565C171.33 503.807 168.118 501.231 165.412 497.984C162.707 494.736 160.561 490.881 159.097 486.638C157.633 482.395 156.88 477.848 156.881 473.256C156.88 468.664 157.633 464.116 159.097 459.874C160.561 455.631 162.707 451.775 165.412 448.528C168.118 445.28 171.33 442.704 174.866 440.947C178.401 439.189 182.19 438.285 186.017 438.285C189.844 438.285 193.633 439.189 197.168 440.947C200.704 442.704 203.916 445.28 206.621 448.528C209.327 451.775 211.473 455.631 212.937 459.874C214.401 464.116 215.154 468.664 215.153 473.256Z" fill="white"/>
<path fill-rule="evenodd" clip-rule="evenodd" d="M369.489 437.699C369.489 440.633 368.911 443.537 367.789 446.247C366.666 448.957 365.021 451.42 362.947 453.494C360.872 455.568 358.41 457.214 355.7 458.336C352.99 459.459 350.085 460.037 347.152 460.037C344.218 460.037 341.314 459.459 338.604 458.336C335.893 457.214 333.431 455.568 331.357 453.494C329.283 451.42 327.637 448.957 326.515 446.247C325.392 443.537 324.814 440.633 324.814 437.699C324.814 434.766 325.392 431.861 326.515 429.151C327.637 426.441 329.283 423.978 331.357 421.904C333.431 419.83 335.893 418.185 338.604 417.062C341.314 415.94 344.218 415.362 347.152 415.362C350.085 415.362 352.99 415.94 355.7 417.062C358.41 418.185 360.872 419.83 362.947 421.904C365.021 423.978 366.666 426.441 367.789 429.151C368.911 431.861 369.489 434.766 369.489 437.699Z" fill="white"/>
<path fill-rule="evenodd" clip-rule="evenodd" d="M560.953 449.948C560.956 460.28 558.923 470.512 554.971 480.058C551.019 489.605 545.224 498.279 537.919 505.586C530.614 512.893 521.941 518.689 512.396 522.644C502.85 526.598 492.619 528.634 482.287 528.634C471.955 528.634 461.724 526.598 452.178 522.644C442.632 518.689 433.959 512.893 426.654 505.586C419.349 498.279 413.555 489.605 409.603 480.058C405.651 470.512 403.618 460.28 403.62 449.948C403.618 439.616 405.651 429.384 409.603 419.837C413.555 410.291 419.349 401.616 426.654 394.31C433.959 387.003 442.632 381.206 452.178 377.252C461.724 373.297 471.955 371.262 482.287 371.262C492.619 371.262 502.85 373.297 512.396 377.252C521.941 381.206 530.614 387.003 537.919 394.31C545.224 401.616 551.019 410.291 554.971 419.837C558.923 429.384 560.956 439.616 560.953 449.948Z" fill="url(#paint8_radial)"/>
<path fill-rule="evenodd" clip-rule="evenodd" d="M538.559 461.601C538.561 466.576 537.582 471.502 535.679 476.099C533.777 480.696 530.987 484.872 527.47 488.391C523.952 491.909 519.776 494.7 515.18 496.604C510.584 498.508 505.658 499.488 500.683 499.488C495.708 499.488 490.782 498.508 486.186 496.604C481.59 494.7 477.414 491.909 473.896 488.391C470.379 484.872 467.589 480.696 465.687 476.099C463.784 471.502 462.805 466.576 462.807 461.601C462.805 456.626 463.784 451.699 465.687 447.103C467.589 442.506 470.379 438.329 473.896 434.811C477.414 431.293 481.59 428.502 486.186 426.598C490.782 424.693 495.708 423.713 500.683 423.713C505.658 423.713 510.584 424.693 515.18 426.598C519.776 428.502 523.952 431.293 527.47 434.811C530.987 438.329 533.777 442.506 535.679 447.103C537.582 451.699 538.561 456.626 538.559 461.601Z" fill="#2E3436" stroke="black" stroke-width="1.39874" stroke-miterlimit="10"/>
<path fill-rule="evenodd" clip-rule="evenodd" d="M512.336 444.12C512.336 447.563 511.658 450.973 510.34 454.154C509.022 457.336 507.091 460.226 504.656 462.661C502.221 465.096 499.33 467.028 496.149 468.346C492.967 469.663 489.558 470.342 486.114 470.342C482.671 470.342 479.261 469.663 476.079 468.346C472.898 467.028 470.007 465.096 467.572 462.661C465.137 460.226 463.206 457.336 461.888 454.154C460.57 450.973 459.892 447.563 459.892 444.12C459.892 440.676 460.57 437.266 461.888 434.085C463.206 430.903 465.137 428.013 467.572 425.578C470.007 423.143 472.898 421.211 476.079 419.894C479.261 418.576 482.671 417.897 486.114 417.897C489.558 417.897 492.967 418.576 496.149 419.894C499.33 421.211 502.221 423.143 504.656 425.578C507.091 428.013 509.022 430.903 510.34 434.085C511.658 437.266 512.336 440.676 512.336 444.12Z" fill="white"/>
</g>
<defs>
<filter id="filter0_d" x="78" y="86" width="868" height="868" filterUnits="userSpaceOnUse" color-interpolation-filters="sRGB">
<feFlood flood-opacity="0" result="BackgroundImageFix"/>
<feColorMatrix in="SourceAlpha" type="matrix" values="0 0 0 0 0 0 0 0 0 0 0 0 0 0 0 0 0 0 127 0"/>
<feMorphology radius="2" operator="dilate" in="SourceAlpha" result="effect1_dropShadow"/>
<feOffset dy="8"/>
<feGaussianBlur stdDeviation="10"/>
<feColorMatrix type="matrix" values="0 0 0 0 0 0 0 0 0 0 0 0 0 0 0 0 0 0 0.25 0"/>
<feBlend mode="normal" in2="BackgroundImageFix" result="effect1_dropShadow"/>
<feBlend mode="normal" in="SourceGraphic" in2="effect1_dropShadow" result="shape"/>
</filter>
<filter id="filter1_d" x="87" y="189" width="850" height="655.751" filterUnits="userSpaceOnUse" color-interpolation-filters="sRGB">
<feFlood flood-opacity="0" result="BackgroundImageFix"/>
<feColorMatrix in="SourceAlpha" type="matrix" values="0 0 0 0 0 0 0 0 0 0 0 0 0 0 0 0 0 0 127 0"/>
<feOffset dy="5"/>
<feGaussianBlur stdDeviation="25"/>
<feColorMatrix type="matrix" values="0 0 0 0 0 0 0 0 0 0 0 0 0 0 0 0 0 0 0.4 0"/>
<feBlend mode="normal" in2="BackgroundImageFix" result="effect1_dropShadow"/>
<feBlend mode="normal" in="SourceGraphic" in2="effect1_dropShadow" result="shape"/>
</filter>
<linearGradient id="paint0_linear" x1="512" y1="100" x2="512" y2="924" gradientUnits="userSpaceOnUse">
<stop stop-color="#F3F3F3"/>
<stop offset="1" stop-color="#AFA894"/>
</linearGradient>
<radialGradient id="paint1_radial" cx="0" cy="0" r="1" gradientUnits="userSpaceOnUse" gradientTransform="translate(391.9 457.577) scale(561.835 410.955)">
<stop stop-color="#857C63"/>
<stop offset="1" stop-color="#221F19"/>
</radialGradient>
<linearGradient id="paint2_linear" x1="588.954" y1="558.599" x2="405.399" y2="595.018" gradientUnits="userSpaceOnUse">
<stop/>
<stop offset="1" stop-opacity="0"/>
</linearGradient>
<linearGradient id="paint3_linear" x1="685.304" y1="618.346" x2="651.066" y2="693.124" gradientUnits="userSpaceOnUse">
<stop stop-color="#6E3D09"/>
<stop offset="0.242424" stop-color="#EA8113"/>
<stop offset="0.621212" stop-color="#5C3307"/>
<stop offset="1" stop-color="#E07C12"/>
</linearGradient>
<linearGradient id="paint4_linear" x1="758.674" y1="699.558" x2="777.485" y2="667.679" gradientUnits="userSpaceOnUse">
<stop stop-color="#BDBDBD"/>
<stop offset="0.333333" stop-color="#E2E2E2"/>
<stop offset="0.73525" stop-color="#A3A3A3"/>
<stop offset="1" stop-color="#DDDDDD"/>
</linearGradient>
<radialGradient id="paint5_radial" cx="0" cy="0" r="1" gradientUnits="userSpaceOnUse" gradientTransform="translate(796.22 717.209) rotate(-106.415) scale(79.8455 77.8118)">
<stop stop-color="#696969"/>
<stop offset="1"/>
</radialGradient>
<radialGradient id="paint6_radial" cx="0" cy="0" r="1" gradientUnits="userSpaceOnUse" gradientTransform="translate(343.892 395.507) scale(97.6105 97.6103)">
<stop stop-color="white"/>
<stop offset="1" stop-color="#B9B9B0"/>
</radialGradient>
<radialGradient id="paint7_radial" cx="0" cy="0" r="1" gradientUnits="userSpaceOnUse" gradientTransform="translate(192.739 474.653) rotate(-30) scale(73.324 85.5812)">
<stop stop-color="#5B676B"/>
<stop offset="1" stop-color="#141718"/>
</radialGradient>
<radialGradient id="paint8_radial" cx="0" cy="0" r="1" gradientUnits="userSpaceOnUse" gradientTransform="translate(482.287 394.59) scale(114.586 114.586)">
<stop stop-color="white"/>
<stop offset="1" stop-color="#B9B9B0"/>
</radialGradient>
</defs>
</svg>
