<svg width="1024" height="1024" viewBox="0 0 1024 1024" fill="none" xmlns="http://www.w3.org/2000/svg">
<g filter="url(#filter0_d)">
<rect x="100" y="100" width="824" height="824" rx="179" fill="url(#paint0_linear)"/>
</g>
<g filter="url(#filter1_d)">
<path fill-rule="evenodd" clip-rule="evenodd" d="M284.07 290.168C284.07 290.168 332.71 390.47 446.5 387.641C684.961 381.658 726.777 257.264 732.759 239.316C738.742 221.369 747.896 224.087 750.012 240.675C827.785 946.613 210.28 643.722 188.349 523.486C310.991 487.591 281.078 418.792 281.078 418.792L284.07 290.168Z" fill="url(#paint1_radial)"/>
<path fill-rule="evenodd" clip-rule="evenodd" d="M374.825 587.949C488.855 610.756 546.924 589.609 580.91 563.367C571.936 551.775 556.606 539.062 556.606 539.062C556.606 539.062 596.427 550.128 610.449 568.227C624.431 586.275 615.641 597.394 611.981 620.486C603.835 600.204 588.63 592.599 586.572 584.54C556.008 626.791 479.86 625.036 374.825 587.949H374.825Z" fill="url(#paint2_linear)"/>
<path d="M559.967 596.108C562.776 591.355 567.093 586.659 573.627 583.482C574.842 583.857 576.127 584.353 577.48 584.982C577.48 584.982 684.979 616.026 743.295 658.689L727.62 689.907C657.802 669.832 565.868 603.924 565.868 603.924C562.987 601.495 561.043 598.773 559.967 596.108Z" fill="url(#paint3_linear)"/>
<path d="M802.381 718.68L810.773 700.103L745.667 658.394L740.642 655.522L737.169 652.049C727.711 657.972 715.579 676.729 719.223 689.098L723.275 689.677L729.516 692.081L802.381 718.68Z" fill="url(#paint4_linear)"/>
<path d="M897 797.571C876.703 728.673 869.504 673.968 816.461 678.836C773.716 682.759 770.724 744.006 814.894 760.906C857.445 777.187 897 797.571 897 797.571Z" fill="url(#paint5_radial)"/>
<path fill-rule="evenodd" clip-rule="evenodd" d="M408.208 441.228C408.21 450.265 406.433 459.213 402.976 467.562C399.52 475.911 394.452 483.497 388.063 489.888C381.675 496.278 374.089 501.348 365.741 504.806C357.393 508.265 348.445 510.045 339.409 510.045C330.373 510.045 321.425 508.265 313.077 504.806C304.729 501.348 297.143 496.278 290.755 489.888C284.366 483.497 279.298 475.911 275.842 467.562C272.386 459.213 270.608 450.265 270.61 441.228C270.608 432.192 272.386 423.244 275.842 414.895C279.298 406.546 284.366 398.959 290.755 392.569C297.143 386.179 304.729 381.109 313.077 377.651C321.425 374.192 330.373 372.412 339.409 372.412C348.445 372.412 357.393 374.192 365.741 377.651C374.089 381.109 381.675 386.179 388.063 392.569C394.452 398.959 399.52 406.546 402.976 414.895C406.433 423.244 408.21 432.192 408.208 441.228V441.228Z" fill="url(#paint6_radial)"/>
<path fill-rule="evenodd" clip-rule="evenodd" d="M271.156 467.151C287.17 489.347 296.265 515.152 296.442 538.889C296.62 562.625 287.864 582.349 272.101 593.72C256.338 605.092 234.86 607.181 212.39 599.526C189.921 591.872 168.302 575.102 152.289 552.905C136.275 530.709 127.18 504.904 127.003 481.167C126.825 457.431 135.581 437.707 151.344 426.336C167.107 414.964 188.586 412.875 211.055 420.53C233.524 428.184 255.143 444.954 271.156 467.151Z" fill="url(#paint7_radial)"/>
<path fill-rule="evenodd" clip-rule="evenodd" d="M388.622 451.421C388.623 455.772 387.767 460.081 386.103 464.101C384.439 468.121 381.999 471.774 378.923 474.851C375.847 477.928 372.195 480.369 368.175 482.034C364.155 483.7 359.847 484.557 355.496 484.557C351.145 484.557 346.837 483.7 342.817 482.034C338.798 480.369 335.145 477.928 332.069 474.851C328.993 471.774 326.553 468.121 324.889 464.101C323.225 460.081 322.369 455.772 322.371 451.421C322.369 447.07 323.225 442.762 324.889 438.742C326.553 434.722 328.993 431.069 332.069 427.992C335.145 424.915 338.798 422.474 342.817 420.809C346.837 419.143 351.145 418.286 355.496 418.286C359.847 418.286 364.155 419.143 368.175 420.809C372.195 422.474 375.847 424.915 378.923 427.992C381.999 431.069 384.439 434.722 386.103 438.742C387.767 442.762 388.623 447.07 388.622 451.421Z" fill="#2E3436" stroke="black" stroke-width="1.39874" stroke-miterlimit="10"/>
<path fill-rule="evenodd" clip-rule="evenodd" d="M207.237 472.635C207.238 477.35 206.465 482.018 204.962 486.374C203.459 490.73 201.256 494.688 198.478 498.022C195.7 501.356 192.403 504.001 188.773 505.806C185.143 507.61 181.253 508.539 177.324 508.539C173.395 508.539 169.505 507.61 165.876 505.806C162.246 504.001 158.948 501.356 156.17 498.022C153.393 494.688 151.189 490.73 149.687 486.374C148.184 482.018 147.411 477.35 147.412 472.635C147.411 467.921 148.184 463.252 149.687 458.896C151.189 454.54 153.393 450.582 156.17 447.248C158.948 443.914 162.246 441.269 165.876 439.465C169.505 437.66 173.395 436.731 177.324 436.731C181.253 436.731 185.143 437.66 188.773 439.465C192.403 441.269 195.7 443.914 198.478 447.248C201.256 450.582 203.459 454.54 204.962 458.896C206.465 463.252 207.238 467.921 207.237 472.635V472.635Z" fill="white"/>
<path fill-rule="evenodd" clip-rule="evenodd" d="M365.689 436.13C365.689 439.142 365.096 442.124 363.943 444.906C362.791 447.689 361.101 450.217 358.972 452.346C356.842 454.476 354.314 456.165 351.532 457.318C348.749 458.47 345.767 459.063 342.756 459.063C339.744 459.063 336.762 458.47 333.98 457.318C331.197 456.165 328.669 454.476 326.54 452.346C324.41 450.217 322.721 447.689 321.568 444.906C320.416 442.124 319.823 439.142 319.823 436.13C319.823 433.119 320.416 430.137 321.568 427.354C322.721 424.572 324.41 422.044 326.54 419.914C328.669 417.785 331.197 416.095 333.98 414.943C336.762 413.79 339.744 413.197 342.756 413.197C345.767 413.197 348.749 413.79 351.532 414.943C354.314 416.095 356.842 417.785 358.972 419.914C361.101 422.044 362.791 424.572 363.943 427.354C365.096 430.137 365.689 433.119 365.689 436.13V436.13Z" fill="white"/>
<path fill-rule="evenodd" clip-rule="evenodd" d="M562.259 448.706C562.262 459.314 560.174 469.818 556.117 479.62C552.059 489.421 546.111 498.326 538.611 505.828C531.111 513.33 522.206 519.281 512.406 523.341C502.606 527.401 492.103 529.491 481.495 529.491C470.887 529.491 460.383 527.401 450.583 523.341C440.783 519.281 431.879 513.33 424.379 505.828C416.879 498.326 410.93 489.421 406.873 479.62C402.815 469.818 400.728 459.314 400.73 448.706C400.728 438.098 402.815 427.594 406.873 417.793C410.93 407.992 416.879 399.086 424.379 391.584C431.879 384.083 440.783 378.132 450.583 374.072C460.383 370.012 470.887 367.922 481.495 367.922C492.103 367.922 502.606 370.012 512.406 374.072C522.206 378.132 531.111 384.083 538.611 391.584C546.111 399.086 552.059 407.992 556.117 417.793C560.174 427.594 562.262 438.098 562.259 448.706V448.706Z" fill="url(#paint8_radial)"/>
<path fill-rule="evenodd" clip-rule="evenodd" d="M539.267 460.669C539.269 465.777 538.264 470.835 536.311 475.554C534.357 480.273 531.493 484.561 527.882 488.174C524.271 491.786 519.984 494.651 515.265 496.606C510.546 498.561 505.489 499.567 500.381 499.567C495.273 499.567 490.216 498.561 485.497 496.606C480.779 494.651 476.491 491.786 472.88 488.174C469.269 484.561 466.405 480.273 464.451 475.554C462.498 470.835 461.493 465.777 461.495 460.669C461.493 455.562 462.498 450.504 464.451 445.785C466.405 441.065 469.269 436.777 472.88 433.165C476.491 429.553 480.779 426.688 485.497 424.733C490.216 422.778 495.273 421.771 500.381 421.771C505.489 421.771 510.546 422.778 515.265 424.733C519.984 426.688 524.271 429.553 527.882 433.165C531.493 436.777 534.357 441.065 536.311 445.785C538.264 450.504 539.269 455.562 539.267 460.669Z" fill="#2E3436" stroke="black" stroke-width="1.39874" stroke-miterlimit="10"/>
<path fill-rule="evenodd" clip-rule="evenodd" d="M512.345 442.723C512.345 446.259 511.649 449.759 510.296 453.026C508.943 456.292 506.96 459.26 504.46 461.759C501.96 464.259 498.992 466.242 495.726 467.595C492.46 468.948 488.959 469.645 485.424 469.645C481.888 469.645 478.388 468.948 475.121 467.595C471.855 466.242 468.887 464.259 466.388 461.759C463.888 459.26 461.905 456.292 460.552 453.026C459.199 449.759 458.502 446.259 458.502 442.723C458.502 439.188 459.199 435.687 460.552 432.421C461.905 429.155 463.888 426.187 466.388 423.687C468.887 421.187 471.855 419.204 475.121 417.851C478.388 416.498 481.888 415.802 485.424 415.802C488.959 415.802 492.46 416.498 495.726 417.851C498.992 419.204 501.96 421.187 504.46 423.687C506.96 426.187 508.943 429.155 510.296 432.421C511.649 435.687 512.345 439.188 512.345 442.723V442.723Z" fill="white"/>
</g>
<defs>
<filter id="filter0_d" x="78" y="86" width="868" height="868" filterUnits="userSpaceOnUse" color-interpolation-filters="sRGB">
<feFlood flood-opacity="0" result="BackgroundImageFix"/>
<feColorMatrix in="SourceAlpha" type="matrix" values="0 0 0 0 0 0 0 0 0 0 0 0 0 0 0 0 0 0 127 0"/>
<feMorphology radius="2" operator="dilate" in="SourceAlpha" result="effect1_dropShadow"/>
<feOffset dy="8"/>
<feGaussianBlur stdDeviation="10"/>
<feColorMatrix type="matrix" values="0 0 0 0 0 0 0 0 0 0 0 0 0 0 0 0 0 0 0.25 0"/>
<feBlend mode="normal" in2="BackgroundImageFix" result="effect1_dropShadow"/>
<feBlend mode="normal" in="SourceGraphic" in2="effect1_dropShadow" result="shape"/>
</filter>
<filter id="filter1_d" x="77" y="182" width="870" height="670.571" filterUnits="userSpaceOnUse" color-interpolation-filters="sRGB">
<feFlood flood-opacity="0" result="BackgroundImageFix"/>
<feColorMatrix in="SourceAlpha" type="matrix" values="0 0 0 0 0 0 0 0 0 0 0 0 0 0 0 0 0 0 127 0"/>
<feOffset dy="5"/>
<feGaussianBlur stdDeviation="25"/>
<feColorMatrix type="matrix" values="0 0 0 0 0 0 0 0 0 0 0 0 0 0 0 0 0 0 0.4 0"/>
<feBlend mode="normal" in2="BackgroundImageFix" result="effect1_dropShadow"/>
<feBlend mode="normal" in="SourceGraphic" in2="effect1_dropShadow" result="shape"/>
</filter>
<linearGradient id="paint0_linear" x1="512" y1="100" x2="512" y2="924" gradientUnits="userSpaceOnUse">
<stop stop-color="#F3F3F3"/>
<stop offset="1" stop-color="#AFA894"/>
</linearGradient>
<radialGradient id="paint1_radial" cx="0" cy="0" r="1" gradientUnits="userSpaceOnUse" gradientTransform="translate(388.697 456.539) scale(576.818 421.914)">
<stop stop-color="#857C63"/>
<stop offset="1" stop-color="#221F19"/>
</radialGradient>
<linearGradient id="paint2_linear" x1="591.006" y1="560.254" x2="402.556" y2="597.645" gradientUnits="userSpaceOnUse">
<stop/>
<stop offset="1" stop-opacity="0"/>
</linearGradient>
<linearGradient id="paint3_linear" x1="689.925" y1="621.596" x2="654.774" y2="698.367" gradientUnits="userSpaceOnUse">
<stop stop-color="#6E3D09"/>
<stop offset="0.242424" stop-color="#EA8113"/>
<stop offset="0.621212" stop-color="#5C3307"/>
<stop offset="1" stop-color="#E07C12"/>
</linearGradient>
<linearGradient id="paint4_linear" x1="765.252" y1="704.973" x2="784.565" y2="672.244" gradientUnits="userSpaceOnUse">
<stop stop-color="#BDBDBD"/>
<stop offset="0.333333" stop-color="#E2E2E2"/>
<stop offset="0.73525" stop-color="#A3A3A3"/>
<stop offset="1" stop-color="#DDDDDD"/>
</linearGradient>
<radialGradient id="paint5_radial" cx="0" cy="0" r="1" gradientUnits="userSpaceOnUse" gradientTransform="translate(803.8 723.094) rotate(-106.415) scale(81.9747 79.8868)">
<stop stop-color="#696969"/>
<stop offset="1"/>
</radialGradient>
<radialGradient id="paint6_radial" cx="0" cy="0" r="1" gradientUnits="userSpaceOnUse" gradientTransform="translate(339.409 392.814) scale(100.213 100.213)">
<stop stop-color="white"/>
<stop offset="1" stop-color="#B9B9B0"/>
</radialGradient>
<radialGradient id="paint7_radial" cx="0" cy="0" r="1" gradientUnits="userSpaceOnUse" gradientTransform="translate(184.225 474.07) rotate(-30) scale(75.2793 87.8634)">
<stop stop-color="#5B676B"/>
<stop offset="1" stop-color="#141718"/>
</radialGradient>
<radialGradient id="paint8_radial" cx="0" cy="0" r="1" gradientUnits="userSpaceOnUse" gradientTransform="translate(481.495 391.872) scale(117.642 117.642)">
<stop stop-color="white"/>
<stop offset="1" stop-color="#B9B9B0"/>
</radialGradient>
</defs>
</svg>
