<svg width="1024" height="1024" viewBox="0 0 1024 1024" fill="none" xmlns="http://www.w3.org/2000/svg">
<g filter="url(#filter0_d)">
<rect x="100" y="100" width="824" height="824" rx="179" fill="url(#paint0_linear)"/>
</g>
<g filter="url(#filter1_d)">
<path d="M237.427 528.001C237.427 549.811 235.683 556.915 231.196 562.149C226.202 566.646 219.72 569.132 213 569.128L214.745 581.591C225.163 581.732 235.271 578.052 243.16 571.247C247.405 566.071 250.564 560.092 252.448 553.669C254.332 547.245 254.904 540.508 254.128 533.858V451.354H237.427V527.502V528.001Z" fill="#4E4E4E"/>
</g>
<g filter="url(#filter2_d)">
<path d="M361.974 518.17C361.974 527.517 361.974 535.868 362.722 543.096H347.891L346.894 528.265C343.792 533.513 339.355 537.845 334.036 540.822C328.717 543.799 322.704 545.315 316.609 545.215C302.152 545.215 284.953 537.363 284.953 505.333V452.117H301.653V501.968C301.653 519.292 307.013 530.882 322.093 530.882C325.195 530.916 328.273 530.329 331.146 529.157C334.019 527.985 336.629 526.252 338.823 524.058C341.017 521.864 342.751 519.254 343.923 516.381C345.094 513.508 345.681 510.43 345.648 507.328V451.494H362.348V517.672L361.974 518.17Z" fill="#4E4E4E"/>
</g>
<g filter="url(#filter3_d)">
<path d="M393.63 481.766C393.63 470.176 393.63 460.704 392.882 452.104H407.837L408.585 467.683C411.917 462.055 416.714 457.436 422.464 454.319C428.215 451.203 434.703 449.705 441.238 449.986C463.422 449.986 480.122 468.555 480.122 496.223C480.122 528.876 460.057 545.078 438.371 545.078C432.821 545.325 427.301 544.136 422.345 541.626C417.388 539.115 413.164 535.367 410.081 530.746V580.597H393.63V482.14V481.766ZM410.081 506.069C410.126 508.33 410.376 510.583 410.828 512.799C412.242 518.333 415.461 523.237 419.976 526.736C424.49 530.234 430.043 532.128 435.754 532.116C453.327 532.116 463.671 517.784 463.671 496.971C463.671 478.775 453.95 463.196 436.377 463.196C429.423 463.766 422.916 466.852 418.074 471.877C413.233 476.902 410.391 483.52 410.081 490.49V506.069Z" fill="#4E4E4E"/>
</g>
<g filter="url(#filter4_d)">
<path d="M509.878 452.02L529.943 505.735C532.062 511.717 534.305 518.946 535.801 524.305C537.545 518.821 539.415 511.842 541.658 505.361L559.854 452.02H577.427L552.501 516.827C540.038 547.984 532.436 564.061 520.97 573.783C515.195 579.058 508.154 582.75 500.531 584.501L496.418 570.542C501.748 568.791 506.696 566.042 510.999 562.441C517.079 557.486 521.905 551.167 525.082 543.996C525.763 542.754 526.226 541.406 526.453 540.008C526.312 538.504 525.933 537.032 525.332 535.646L491.433 451.771H509.628L509.878 452.02Z" fill="#4E4E4E"/>
</g>
<g filter="url(#filter5_d)">
<path d="M621.761 425.875V452.047H645.69V464.51H621.761V513.614C621.761 524.831 625.002 531.312 634.224 531.312C637.5 531.365 640.768 530.988 643.945 530.19L644.693 542.653C639.929 544.303 634.902 545.064 629.862 544.896C626.525 545.105 623.182 544.589 620.063 543.385C616.943 542.18 614.122 540.315 611.791 537.917C606.714 531.127 604.399 522.666 605.31 514.237V464.386H591.103V451.923H605.559V429.739L621.761 425.875Z" fill="#4E4E4E"/>
</g>
<g filter="url(#filter6_d)">
<path d="M676.453 500.473C676.115 504.7 676.698 508.95 678.163 512.929C679.628 516.908 681.94 520.522 684.938 523.52C687.936 526.518 691.55 528.83 695.529 530.295C699.508 531.76 703.758 532.343 707.985 532.005C716.534 532.196 725.027 530.582 732.91 527.269L735.777 539.732C726.103 543.717 715.701 545.627 705.243 545.34C699.146 545.757 693.031 544.851 687.317 542.683C681.603 540.515 676.426 537.137 672.14 532.781C667.855 528.424 664.562 523.192 662.489 517.443C660.415 511.695 659.609 505.566 660.127 499.476C660.127 472.058 676.453 450.373 703.124 450.373C733.035 450.373 740.513 476.545 740.513 493.245C740.673 495.818 740.673 498.399 740.513 500.972H676.079L676.453 500.473ZM725.308 488.011C725.789 484.679 725.55 481.282 724.607 478.05C723.665 474.818 722.041 471.826 719.844 469.275C717.647 466.724 714.929 464.674 711.873 463.262C708.817 461.85 705.493 461.11 702.127 461.091C695.279 461.586 688.864 464.621 684.137 469.601C679.411 474.581 676.715 481.146 676.578 488.011H725.308Z" fill="#4E4E4E"/>
</g>
<g filter="url(#filter7_d)">
<path d="M765.852 480.361C765.852 469.643 765.852 460.42 765.104 451.946H780.06V469.768H780.808C782.377 464.267 785.621 459.392 790.087 455.818C794.554 452.245 800.023 450.151 805.734 449.827C807.305 449.621 808.898 449.621 810.469 449.827V465.406C808.565 465.185 806.641 465.185 804.736 465.406C799.079 465.625 793.695 467.896 789.589 471.795C785.484 475.694 782.938 480.954 782.428 486.592C781.962 489.143 781.712 491.727 781.68 494.319V542.8H765.229V480.486L765.852 480.361Z" fill="#4E4E4E"/>
</g>
<g filter="url(#filter8_d)">
<path d="M758.533 201.695C759.045 210.068 757.053 218.403 752.811 225.64C748.569 232.876 742.268 238.686 734.713 242.33C727.157 245.973 718.687 247.284 710.383 246.097C702.08 244.91 694.317 241.278 688.085 235.663C681.852 230.049 677.432 222.707 675.388 214.571C673.343 206.436 673.767 197.876 676.604 189.982C679.441 182.088 684.564 175.218 691.32 170.246C698.076 165.274 706.159 162.425 714.539 162.063C720.034 161.761 725.534 162.548 730.723 164.378C735.913 166.209 740.689 169.048 744.778 172.731C748.866 176.414 752.186 180.869 754.547 185.84C756.908 190.811 758.263 196.199 758.533 201.695Z" fill="#767677"/>
</g>
<g filter="url(#filter9_d)">
<path d="M512.096 689.782C399.931 689.782 301.349 649.527 250.375 590.079C270.153 643.559 305.84 689.697 352.632 722.282C399.424 754.867 455.077 772.335 512.096 772.335C569.117 772.335 624.768 754.867 671.561 722.282C718.353 689.697 754.04 643.559 773.818 590.079C722.97 649.527 624.761 689.782 512.096 689.782Z" fill="#F37726"/>
</g>
<g filter="url(#filter10_d)">
<path d="M512.096 303.207C624.263 303.207 722.845 343.462 773.818 402.91C754.04 349.43 718.353 303.292 671.561 270.707C624.768 238.121 569.117 220.653 512.096 220.653C455.077 220.653 399.424 238.121 352.632 270.707C305.84 303.292 270.153 349.43 250.375 402.91C301.349 343.337 399.432 303.207 512.096 303.207Z" fill="#F37726"/>
</g>
<g filter="url(#filter11_d)">
<path d="M357.686 805.47C358.344 816.016 355.848 826.519 350.515 835.641C345.182 844.763 337.254 852.091 327.742 856.691C318.229 861.292 307.563 862.956 297.101 861.473C286.639 859.989 276.856 855.425 268.997 848.361C261.139 841.297 255.561 832.054 252.975 821.809C250.389 811.564 250.911 800.781 254.475 790.833C258.039 780.886 264.483 772.225 272.987 765.954C281.491 759.682 291.67 756.084 302.226 755.618C309.141 755.248 316.062 756.245 322.592 758.55C329.122 760.855 335.134 764.425 340.284 769.054C345.434 773.684 349.622 779.282 352.608 785.531C355.594 791.779 357.32 798.555 357.686 805.47Z" fill="#9E9E9E"/>
</g>
<g filter="url(#filter12_d)">
<path d="M263.123 289.659C257.079 289.826 251.121 288.202 245.997 284.992C240.874 281.781 236.814 277.128 234.328 271.616C231.843 266.105 231.042 259.981 232.027 254.016C233.013 248.05 235.74 242.509 239.866 238.09C243.992 233.67 249.333 230.569 255.217 229.177C261.1 227.785 267.264 228.163 272.933 230.265C278.603 232.367 283.524 236.098 287.078 240.989C290.632 245.88 292.661 251.713 292.909 257.754C293.145 265.923 290.15 273.855 284.573 279.828C278.997 285.802 271.288 289.334 263.123 289.659Z" fill="#616262"/>
</g>
<defs>
<filter id="filter0_d" x="78" y="86" width="868" height="868" filterUnits="userSpaceOnUse" color-interpolation-filters="sRGB">
<feFlood flood-opacity="0" result="BackgroundImageFix"/>
<feColorMatrix in="SourceAlpha" type="matrix" values="0 0 0 0 0 0 0 0 0 0 0 0 0 0 0 0 0 0 127 0"/>
<feMorphology radius="2" operator="dilate" in="SourceAlpha" result="effect1_dropShadow"/>
<feOffset dy="8"/>
<feGaussianBlur stdDeviation="10"/>
<feColorMatrix type="matrix" values="0 0 0 0 0 0 0 0 0 0 0 0 0 0 0 0 0 0 0.25 0"/>
<feBlend mode="normal" in2="BackgroundImageFix" result="effect1_dropShadow"/>
<feBlend mode="normal" in="SourceGraphic" in2="effect1_dropShadow" result="shape"/>
</filter>
<filter id="filter1_d" x="193" y="435.354" width="81.4637" height="170.241" filterUnits="userSpaceOnUse" color-interpolation-filters="sRGB">
<feFlood flood-opacity="0" result="BackgroundImageFix"/>
<feColorMatrix in="SourceAlpha" type="matrix" values="0 0 0 0 0 0 0 0 0 0 0 0 0 0 0 0 0 0 127 0"/>
<feOffset dy="4"/>
<feGaussianBlur stdDeviation="10"/>
<feColorMatrix type="matrix" values="0 0 0 0 0 0 0 0 0 0 0 0 0 0 0 0 0 0 0.25 0"/>
<feBlend mode="normal" in2="BackgroundImageFix" result="effect1_dropShadow"/>
<feBlend mode="normal" in="SourceGraphic" in2="effect1_dropShadow" result="shape"/>
</filter>
<filter id="filter2_d" x="264.953" y="435.494" width="117.769" height="133.726" filterUnits="userSpaceOnUse" color-interpolation-filters="sRGB">
<feFlood flood-opacity="0" result="BackgroundImageFix"/>
<feColorMatrix in="SourceAlpha" type="matrix" values="0 0 0 0 0 0 0 0 0 0 0 0 0 0 0 0 0 0 127 0"/>
<feOffset dy="4"/>
<feGaussianBlur stdDeviation="10"/>
<feColorMatrix type="matrix" values="0 0 0 0 0 0 0 0 0 0 0 0 0 0 0 0 0 0 0.25 0"/>
<feBlend mode="normal" in2="BackgroundImageFix" result="effect1_dropShadow"/>
<feBlend mode="normal" in="SourceGraphic" in2="effect1_dropShadow" result="shape"/>
</filter>
<filter id="filter3_d" x="372.882" y="433.952" width="127.24" height="170.645" filterUnits="userSpaceOnUse" color-interpolation-filters="sRGB">
<feFlood flood-opacity="0" result="BackgroundImageFix"/>
<feColorMatrix in="SourceAlpha" type="matrix" values="0 0 0 0 0 0 0 0 0 0 0 0 0 0 0 0 0 0 127 0"/>
<feOffset dy="4"/>
<feGaussianBlur stdDeviation="10"/>
<feColorMatrix type="matrix" values="0 0 0 0 0 0 0 0 0 0 0 0 0 0 0 0 0 0 0.25 0"/>
<feBlend mode="normal" in2="BackgroundImageFix" result="effect1_dropShadow"/>
<feBlend mode="normal" in="SourceGraphic" in2="effect1_dropShadow" result="shape"/>
</filter>
<filter id="filter4_d" x="471.433" y="435.771" width="125.994" height="172.73" filterUnits="userSpaceOnUse" color-interpolation-filters="sRGB">
<feFlood flood-opacity="0" result="BackgroundImageFix"/>
<feColorMatrix in="SourceAlpha" type="matrix" values="0 0 0 0 0 0 0 0 0 0 0 0 0 0 0 0 0 0 127 0"/>
<feOffset dy="4"/>
<feGaussianBlur stdDeviation="10"/>
<feColorMatrix type="matrix" values="0 0 0 0 0 0 0 0 0 0 0 0 0 0 0 0 0 0 0.25 0"/>
<feBlend mode="normal" in2="BackgroundImageFix" result="effect1_dropShadow"/>
<feBlend mode="normal" in="SourceGraphic" in2="effect1_dropShadow" result="shape"/>
</filter>
<filter id="filter5_d" x="571.103" y="409.875" width="94.5875" height="159.066" filterUnits="userSpaceOnUse" color-interpolation-filters="sRGB">
<feFlood flood-opacity="0" result="BackgroundImageFix"/>
<feColorMatrix in="SourceAlpha" type="matrix" values="0 0 0 0 0 0 0 0 0 0 0 0 0 0 0 0 0 0 127 0"/>
<feOffset dy="4"/>
<feGaussianBlur stdDeviation="10"/>
<feColorMatrix type="matrix" values="0 0 0 0 0 0 0 0 0 0 0 0 0 0 0 0 0 0 0.25 0"/>
<feBlend mode="normal" in2="BackgroundImageFix" result="effect1_dropShadow"/>
<feBlend mode="normal" in="SourceGraphic" in2="effect1_dropShadow" result="shape"/>
</filter>
<filter id="filter6_d" x="639.975" y="434.373" width="120.658" height="135.066" filterUnits="userSpaceOnUse" color-interpolation-filters="sRGB">
<feFlood flood-opacity="0" result="BackgroundImageFix"/>
<feColorMatrix in="SourceAlpha" type="matrix" values="0 0 0 0 0 0 0 0 0 0 0 0 0 0 0 0 0 0 127 0"/>
<feOffset dy="4"/>
<feGaussianBlur stdDeviation="10"/>
<feColorMatrix type="matrix" values="0 0 0 0 0 0 0 0 0 0 0 0 0 0 0 0 0 0 0.25 0"/>
<feBlend mode="normal" in2="BackgroundImageFix" result="effect1_dropShadow"/>
<feBlend mode="normal" in="SourceGraphic" in2="effect1_dropShadow" result="shape"/>
</filter>
<filter id="filter7_d" x="745.104" y="433.672" width="85.365" height="133.128" filterUnits="userSpaceOnUse" color-interpolation-filters="sRGB">
<feFlood flood-opacity="0" result="BackgroundImageFix"/>
<feColorMatrix in="SourceAlpha" type="matrix" values="0 0 0 0 0 0 0 0 0 0 0 0 0 0 0 0 0 0 127 0"/>
<feOffset dy="4"/>
<feGaussianBlur stdDeviation="10"/>
<feColorMatrix type="matrix" values="0 0 0 0 0 0 0 0 0 0 0 0 0 0 0 0 0 0 0.25 0"/>
<feBlend mode="normal" in2="BackgroundImageFix" result="effect1_dropShadow"/>
<feBlend mode="normal" in="SourceGraphic" in2="effect1_dropShadow" result="shape"/>
</filter>
<filter id="filter8_d" x="654.114" y="146" width="124.499" height="124.522" filterUnits="userSpaceOnUse" color-interpolation-filters="sRGB">
<feFlood flood-opacity="0" result="BackgroundImageFix"/>
<feColorMatrix in="SourceAlpha" type="matrix" values="0 0 0 0 0 0 0 0 0 0 0 0 0 0 0 0 0 0 127 0"/>
<feOffset dy="4"/>
<feGaussianBlur stdDeviation="10"/>
<feColorMatrix type="matrix" values="0 0 0 0 0 0 0 0 0 0 0 0 0 0 0 0 0 0 0.25 0"/>
<feBlend mode="normal" in2="BackgroundImageFix" result="effect1_dropShadow"/>
<feBlend mode="normal" in="SourceGraphic" in2="effect1_dropShadow" result="shape"/>
</filter>
<filter id="filter9_d" x="230.375" y="574.079" width="563.443" height="222.256" filterUnits="userSpaceOnUse" color-interpolation-filters="sRGB">
<feFlood flood-opacity="0" result="BackgroundImageFix"/>
<feColorMatrix in="SourceAlpha" type="matrix" values="0 0 0 0 0 0 0 0 0 0 0 0 0 0 0 0 0 0 127 0"/>
<feOffset dy="4"/>
<feGaussianBlur stdDeviation="10"/>
<feColorMatrix type="matrix" values="0 0 0 0 0 0 0 0 0 0 0 0 0 0 0 0 0 0 0.25 0"/>
<feBlend mode="normal" in2="BackgroundImageFix" result="effect1_dropShadow"/>
<feBlend mode="normal" in="SourceGraphic" in2="effect1_dropShadow" result="shape"/>
</filter>
<filter id="filter10_d" x="230.375" y="204.653" width="563.443" height="222.256" filterUnits="userSpaceOnUse" color-interpolation-filters="sRGB">
<feFlood flood-opacity="0" result="BackgroundImageFix"/>
<feColorMatrix in="SourceAlpha" type="matrix" values="0 0 0 0 0 0 0 0 0 0 0 0 0 0 0 0 0 0 127 0"/>
<feOffset dy="4"/>
<feGaussianBlur stdDeviation="10"/>
<feColorMatrix type="matrix" values="0 0 0 0 0 0 0 0 0 0 0 0 0 0 0 0 0 0 0.25 0"/>
<feBlend mode="normal" in2="BackgroundImageFix" result="effect1_dropShadow"/>
<feBlend mode="normal" in="SourceGraphic" in2="effect1_dropShadow" result="shape"/>
</filter>
<filter id="filter11_d" x="231.356" y="739.543" width="146.433" height="146.457" filterUnits="userSpaceOnUse" color-interpolation-filters="sRGB">
<feFlood flood-opacity="0" result="BackgroundImageFix"/>
<feColorMatrix in="SourceAlpha" type="matrix" values="0 0 0 0 0 0 0 0 0 0 0 0 0 0 0 0 0 0 127 0"/>
<feOffset dy="4"/>
<feGaussianBlur stdDeviation="10"/>
<feColorMatrix type="matrix" values="0 0 0 0 0 0 0 0 0 0 0 0 0 0 0 0 0 0 0.25 0"/>
<feBlend mode="normal" in2="BackgroundImageFix" result="effect1_dropShadow"/>
<feBlend mode="normal" in="SourceGraphic" in2="effect1_dropShadow" result="shape"/>
</filter>
<filter id="filter12_d" x="211.618" y="212.353" width="101.305" height="101.318" filterUnits="userSpaceOnUse" color-interpolation-filters="sRGB">
<feFlood flood-opacity="0" result="BackgroundImageFix"/>
<feColorMatrix in="SourceAlpha" type="matrix" values="0 0 0 0 0 0 0 0 0 0 0 0 0 0 0 0 0 0 127 0"/>
<feOffset dy="4"/>
<feGaussianBlur stdDeviation="10"/>
<feColorMatrix type="matrix" values="0 0 0 0 0 0 0 0 0 0 0 0 0 0 0 0 0 0 0.25 0"/>
<feBlend mode="normal" in2="BackgroundImageFix" result="effect1_dropShadow"/>
<feBlend mode="normal" in="SourceGraphic" in2="effect1_dropShadow" result="shape"/>
</filter>
<linearGradient id="paint0_linear" x1="512" y1="100" x2="512" y2="924" gradientUnits="userSpaceOnUse">
<stop stop-color="white"/>
<stop offset="1" stop-color="#E5EFFC"/>
</linearGradient>
</defs>
</svg>
