<svg width="1024" height="1024" viewBox="0 0 1024 1024" fill="none" xmlns="http://www.w3.org/2000/svg">
<g filter="url(#filter0_di)">
<rect x="100" y="100" width="824" height="824" rx="179" fill="url(#paint0_linear)"/>
</g>
<g filter="url(#filter1_i)">
<rect x="136" y="136" width="752" height="752" rx="145" fill="url(#paint1_linear)"/>
</g>
<g filter="url(#filter2_d)">
<mask id="path-3-outside-1" maskUnits="userSpaceOnUse" x="173" y="340" width="677" height="344" fill="black">
<rect fill="white" x="173" y="340" width="677" height="344"/>
<path d="M841.389 584.923C831.047 584.923 823.732 583.932 819.441 581.952C815.15 579.972 810.806 576.121 806.405 570.401L724.883 453.565L777.03 377.985C781.431 372.044 787.427 366.653 795.018 361.814C802.609 356.974 815.095 354.552 832.479 354.552V343H742.376V354.552C749.637 354.552 755.302 356.367 759.373 359.997C763.444 363.627 765.479 367.643 765.479 372.044C765.479 373.584 765.369 375.07 765.149 376.5C764.929 377.93 764.049 379.415 762.508 380.956L718.942 444.985L669.435 372.044L667.95 370.229L666.465 366.434C666.465 363.354 668.556 360.603 672.735 358.184C676.915 355.764 682.637 354.554 689.897 354.554V343.001H584.942V354.554H590.883C601.005 354.554 608.596 355.434 613.656 357.194C618.717 358.954 622.678 362.035 625.538 366.436L695.509 471.06L634.45 561.494C631.589 565.895 626.363 570.9 618.772 576.511C611.181 582.122 597.923 584.928 579.001 584.928V596.479H600.479C596.136 619.692 590.08 637.194 582.3 648.957C573.279 662.599 552.816 669.42 520.91 669.42H471.402C462.601 669.42 457.486 668.429 456.055 666.449C454.625 664.469 453.91 660.618 453.91 654.898V555.554H485.925C503.308 555.554 514.418 558.854 519.26 565.456C524.102 572.058 526.521 583.389 526.521 599.451H535.433V500.436H526.521C526.521 516.498 524.487 527.775 520.416 534.266C516.345 540.757 504.849 544.002 485.925 544.002H453.91V453.568C453.91 447.847 454.626 443.996 456.055 442.017C457.484 440.038 462.601 439.046 471.402 439.046H517.94C546.984 439.046 565.631 444.656 573.882 455.879C582.133 467.101 587.799 485.804 590.879 511.987H599.461L587.91 427.496H418.717L412.984 345.973H182.941L177 430.465H185.582C188.662 399.88 193.724 380.078 200.764 371.056C207.804 362.035 225.187 357.524 252.911 357.524H273.045C277.446 357.524 280.03 358.844 280.801 361.484C281.572 364.123 281.957 367.645 281.957 372.045V567.435C281.957 573.156 280.361 577.5 277.171 580.471C273.981 583.441 262.923 584.927 244.001 584.927H226.509V596.478H366.45V584.927H354.568C335.645 584.927 324.643 583.441 321.564 580.471C318.485 577.5 316.943 573.155 316.943 567.435V372.045C316.943 367.645 317.163 364.509 317.603 362.639C318.042 360.769 319.692 359.064 322.554 357.523H343.018C370.742 357.523 388.124 362.033 395.165 371.055C401.973 379.778 406.821 398.611 409.721 427.493H380.974V439.044H389.555C404.298 439.044 412.878 440.144 415.299 442.344C417.72 444.544 418.929 449.276 418.929 456.536V651.925C418.929 659.186 417.719 663.917 415.299 666.118C412.88 668.319 404.298 669.418 389.555 669.418H380.974V680.969H596.494L609.27 596.478H672.406V584.927C663.604 584.927 657.498 582.726 654.088 578.325C650.678 573.924 648.973 570.294 648.973 567.433C648.973 565.893 649.083 564.408 649.302 562.978C649.522 561.547 650.403 560.062 651.942 558.522L704.42 479.97L762.508 570.403C762.508 571.723 763.003 572.494 763.994 572.712L765.479 573.042C765.479 576.122 763.444 578.873 759.373 581.293C755.302 583.712 749.637 584.923 742.376 584.923V596.474H847V584.923H841.389Z"/>
</mask>
<path d="M841.389 584.923C831.047 584.923 823.732 583.932 819.441 581.952C815.15 579.972 810.806 576.121 806.405 570.401L724.883 453.565L777.03 377.985C781.431 372.044 787.427 366.653 795.018 361.814C802.609 356.974 815.095 354.552 832.479 354.552V343H742.376V354.552C749.637 354.552 755.302 356.367 759.373 359.997C763.444 363.627 765.479 367.643 765.479 372.044C765.479 373.584 765.369 375.07 765.149 376.5C764.929 377.93 764.049 379.415 762.508 380.956L718.942 444.985L669.435 372.044L667.95 370.229L666.465 366.434C666.465 363.354 668.556 360.603 672.735 358.184C676.915 355.764 682.637 354.554 689.897 354.554V343.001H584.942V354.554H590.883C601.005 354.554 608.596 355.434 613.656 357.194C618.717 358.954 622.678 362.035 625.538 366.436L695.509 471.06L634.45 561.494C631.589 565.895 626.363 570.9 618.772 576.511C611.181 582.122 597.923 584.928 579.001 584.928V596.479H600.479C596.136 619.692 590.08 637.194 582.3 648.957C573.279 662.599 552.816 669.42 520.91 669.42H471.402C462.601 669.42 457.486 668.429 456.055 666.449C454.625 664.469 453.91 660.618 453.91 654.898V555.554H485.925C503.308 555.554 514.418 558.854 519.26 565.456C524.102 572.058 526.521 583.389 526.521 599.451H535.433V500.436H526.521C526.521 516.498 524.487 527.775 520.416 534.266C516.345 540.757 504.849 544.002 485.925 544.002H453.91V453.568C453.91 447.847 454.626 443.996 456.055 442.017C457.484 440.038 462.601 439.046 471.402 439.046H517.94C546.984 439.046 565.631 444.656 573.882 455.879C582.133 467.101 587.799 485.804 590.879 511.987H599.461L587.91 427.496H418.717L412.984 345.973H182.941L177 430.465H185.582C188.662 399.88 193.724 380.078 200.764 371.056C207.804 362.035 225.187 357.524 252.911 357.524H273.045C277.446 357.524 280.03 358.844 280.801 361.484C281.572 364.123 281.957 367.645 281.957 372.045V567.435C281.957 573.156 280.361 577.5 277.171 580.471C273.981 583.441 262.923 584.927 244.001 584.927H226.509V596.478H366.45V584.927H354.568C335.645 584.927 324.643 583.441 321.564 580.471C318.485 577.5 316.943 573.155 316.943 567.435V372.045C316.943 367.645 317.163 364.509 317.603 362.639C318.042 360.769 319.692 359.064 322.554 357.523H343.018C370.742 357.523 388.124 362.033 395.165 371.055C401.973 379.778 406.821 398.611 409.721 427.493H380.974V439.044H389.555C404.298 439.044 412.878 440.144 415.299 442.344C417.72 444.544 418.929 449.276 418.929 456.536V651.925C418.929 659.186 417.719 663.917 415.299 666.118C412.88 668.319 404.298 669.418 389.555 669.418H380.974V680.969H596.494L609.27 596.478H672.406V584.927C663.604 584.927 657.498 582.726 654.088 578.325C650.678 573.924 648.973 570.294 648.973 567.433C648.973 565.893 649.083 564.408 649.302 562.978C649.522 561.547 650.403 560.062 651.942 558.522L704.42 479.97L762.508 570.403C762.508 571.723 763.003 572.494 763.994 572.712L765.479 573.042C765.479 576.122 763.444 578.873 759.373 581.293C755.302 583.712 749.637 584.923 742.376 584.923V596.474H847V584.923H841.389Z" fill="url(#paint2_linear)"/>
<path d="M841.389 584.923C831.047 584.923 823.732 583.932 819.441 581.952C815.15 579.972 810.806 576.121 806.405 570.401L724.883 453.565L777.03 377.985C781.431 372.044 787.427 366.653 795.018 361.814C802.609 356.974 815.095 354.552 832.479 354.552V343H742.376V354.552C749.637 354.552 755.302 356.367 759.373 359.997C763.444 363.627 765.479 367.643 765.479 372.044C765.479 373.584 765.369 375.07 765.149 376.5C764.929 377.93 764.049 379.415 762.508 380.956L718.942 444.985L669.435 372.044L667.95 370.229L666.465 366.434C666.465 363.354 668.556 360.603 672.735 358.184C676.915 355.764 682.637 354.554 689.897 354.554V343.001H584.942V354.554H590.883C601.005 354.554 608.596 355.434 613.656 357.194C618.717 358.954 622.678 362.035 625.538 366.436L695.509 471.06L634.45 561.494C631.589 565.895 626.363 570.9 618.772 576.511C611.181 582.122 597.923 584.928 579.001 584.928V596.479H600.479C596.136 619.692 590.08 637.194 582.3 648.957C573.279 662.599 552.816 669.42 520.91 669.42H471.402C462.601 669.42 457.486 668.429 456.055 666.449C454.625 664.469 453.91 660.618 453.91 654.898V555.554H485.925C503.308 555.554 514.418 558.854 519.26 565.456C524.102 572.058 526.521 583.389 526.521 599.451H535.433V500.436H526.521C526.521 516.498 524.487 527.775 520.416 534.266C516.345 540.757 504.849 544.002 485.925 544.002H453.91V453.568C453.91 447.847 454.626 443.996 456.055 442.017C457.484 440.038 462.601 439.046 471.402 439.046H517.94C546.984 439.046 565.631 444.656 573.882 455.879C582.133 467.101 587.799 485.804 590.879 511.987H599.461L587.91 427.496H418.717L412.984 345.973H182.941L177 430.465H185.582C188.662 399.88 193.724 380.078 200.764 371.056C207.804 362.035 225.187 357.524 252.911 357.524H273.045C277.446 357.524 280.03 358.844 280.801 361.484C281.572 364.123 281.957 367.645 281.957 372.045V567.435C281.957 573.156 280.361 577.5 277.171 580.471C273.981 583.441 262.923 584.927 244.001 584.927H226.509V596.478H366.45V584.927H354.568C335.645 584.927 324.643 583.441 321.564 580.471C318.485 577.5 316.943 573.155 316.943 567.435V372.045C316.943 367.645 317.163 364.509 317.603 362.639C318.042 360.769 319.692 359.064 322.554 357.523H343.018C370.742 357.523 388.124 362.033 395.165 371.055C401.973 379.778 406.821 398.611 409.721 427.493H380.974V439.044H389.555C404.298 439.044 412.878 440.144 415.299 442.344C417.72 444.544 418.929 449.276 418.929 456.536V651.925C418.929 659.186 417.719 663.917 415.299 666.118C412.88 668.319 404.298 669.418 389.555 669.418H380.974V680.969H596.494L609.27 596.478H672.406V584.927C663.604 584.927 657.498 582.726 654.088 578.325C650.678 573.924 648.973 570.294 648.973 567.433C648.973 565.893 649.083 564.408 649.302 562.978C649.522 561.547 650.403 560.062 651.942 558.522L704.42 479.97L762.508 570.403C762.508 571.723 763.003 572.494 763.994 572.712L765.479 573.042C765.479 576.122 763.444 578.873 759.373 581.293C755.302 583.712 749.637 584.923 742.376 584.923V596.474H847V584.923H841.389Z" stroke="url(#paint3_linear)" stroke-width="6" mask="url(#path-3-outside-1)"/>
</g>
<defs>
<filter id="filter0_di" x="78" y="86" width="868" height="868" filterUnits="userSpaceOnUse" color-interpolation-filters="sRGB">
<feFlood flood-opacity="0" result="BackgroundImageFix"/>
<feColorMatrix in="SourceAlpha" type="matrix" values="0 0 0 0 0 0 0 0 0 0 0 0 0 0 0 0 0 0 127 0"/>
<feMorphology radius="2" operator="dilate" in="SourceAlpha" result="effect1_dropShadow"/>
<feOffset dy="8"/>
<feGaussianBlur stdDeviation="10"/>
<feColorMatrix type="matrix" values="0 0 0 0 0 0 0 0 0 0 0 0 0 0 0 0 0 0 0.25 0"/>
<feBlend mode="normal" in2="BackgroundImageFix" result="effect1_dropShadow"/>
<feBlend mode="normal" in="SourceGraphic" in2="effect1_dropShadow" result="shape"/>
<feColorMatrix in="SourceAlpha" type="matrix" values="0 0 0 0 0 0 0 0 0 0 0 0 0 0 0 0 0 0 127 0" result="hardAlpha"/>
<feOffset/>
<feGaussianBlur stdDeviation="1.5"/>
<feComposite in2="hardAlpha" operator="arithmetic" k2="-1" k3="1"/>
<feColorMatrix type="matrix" values="0 0 0 0 1 0 0 0 0 1 0 0 0 0 1 0 0 0 1 0"/>
<feBlend mode="normal" in2="shape" result="effect2_innerShadow"/>
</filter>
<filter id="filter1_i" x="136" y="136" width="752" height="752" filterUnits="userSpaceOnUse" color-interpolation-filters="sRGB">
<feFlood flood-opacity="0" result="BackgroundImageFix"/>
<feBlend mode="normal" in="SourceGraphic" in2="BackgroundImageFix" result="shape"/>
<feColorMatrix in="SourceAlpha" type="matrix" values="0 0 0 0 0 0 0 0 0 0 0 0 0 0 0 0 0 0 127 0" result="hardAlpha"/>
<feOffset/>
<feGaussianBlur stdDeviation="2.5"/>
<feComposite in2="hardAlpha" operator="arithmetic" k2="-1" k3="1"/>
<feColorMatrix type="matrix" values="0 0 0 0 0 0 0 0 0 0 0 0 0 0 0 0 0 0 0.25 0"/>
<feBlend mode="normal" in2="shape" result="effect1_innerShadow"/>
</filter>
<filter id="filter2_d" x="163.782" y="334" width="696.218" height="363.969" filterUnits="userSpaceOnUse" color-interpolation-filters="sRGB">
<feFlood flood-opacity="0" result="BackgroundImageFix"/>
<feColorMatrix in="SourceAlpha" type="matrix" values="0 0 0 0 0 0 0 0 0 0 0 0 0 0 0 0 0 0 127 0"/>
<feOffset dy="4"/>
<feGaussianBlur stdDeviation="5"/>
<feColorMatrix type="matrix" values="0 0 0 0 0 0 0 0 0 0 0 0 0 0 0 0 0 0 0.4 0"/>
<feBlend mode="normal" in2="BackgroundImageFix" result="effect1_dropShadow"/>
<feBlend mode="normal" in="SourceGraphic" in2="effect1_dropShadow" result="shape"/>
</filter>
<linearGradient id="paint0_linear" x1="512" y1="100" x2="512" y2="924" gradientUnits="userSpaceOnUse">
<stop stop-color="#F8F8F8"/>
<stop offset="1" stop-color="#BDBDBD"/>
</linearGradient>
<linearGradient id="paint1_linear" x1="512" y1="136" x2="512" y2="888" gradientUnits="userSpaceOnUse">
<stop stop-color="#B3C6CE"/>
<stop offset="1" stop-color="#4B676A"/>
</linearGradient>
<linearGradient id="paint2_linear" x1="512" y1="343" x2="512" y2="680.969" gradientUnits="userSpaceOnUse">
<stop stop-color="#FCFCFC"/>
<stop offset="1" stop-color="#D7D7D7"/>
</linearGradient>
<linearGradient id="paint3_linear" x1="512" y1="343" x2="512" y2="680.969" gradientUnits="userSpaceOnUse">
<stop stop-color="#FCFCFC"/>
<stop offset="1" stop-color="#D8D8D8"/>
</linearGradient>
</defs>
</svg>
